<?xml version="1.0" encoding="UTF-8" standalone="no"?>
<!DOCTYPE svg PUBLIC "-//W3C//DTD SVG 1.1//EN" "http://www.w3.org/Graphics/SVG/1.1/DTD/svg11.dtd">
<svg width="100%" height="100%" viewBox="0 0 1080 1080" version="1.1" xmlns="http://www.w3.org/2000/svg" xmlns:xlink="http://www.w3.org/1999/xlink" xml:space="preserve" xmlns:serif="http://www.serif.com/" style="fill-rule:evenodd;clip-rule:evenodd;stroke-linejoin:round;stroke-miterlimit:2;">
    <g id="Artboard1" transform="matrix(1.27059,0,0,1.25145,0,0)">
        <rect x="0" y="0" width="850" height="863" style="fill:none;"/>
        <g transform="matrix(0.787037,0,0,0.799074,90.7355,86.9308)">
            <path id="borderrectangle-0" d="M673.786,535.167C673.786,534.202 673.003,533.419 672.038,533.419L184.648,533.419C183.683,533.419 182.9,534.202 182.9,535.167L182.9,539.142C182.9,540.107 183.683,540.89 184.648,540.89L672.038,540.89C673.003,540.89 673.786,540.107 673.786,539.142L673.786,535.167Z" style="fill:rgb(5,57,98);"/>
            <path d="M594.634,315.843L531.35,286.802L530.917,286.802C530.483,286.802 530.05,286.369 529.616,286.369C529.183,286.369 529.183,286.369 528.749,285.935L526.582,285.935C526.149,285.935 525.715,285.935 525.282,286.369L524.415,286.369L507.944,292.437L507.944,254.727C507.944,251.693 506.21,248.659 503.176,247.358L443.36,217.017C442.927,217.017 442.927,217.017 442.493,216.583C442.06,216.583 441.626,216.15 441.626,216.15L438.159,216.15C437.725,216.15 437.292,216.583 437.292,216.583C436.858,216.583 436.858,216.583 436.425,217.017L298.155,286.802C295.121,288.102 293.387,291.136 293.387,294.171L293.387,332.747L263.479,346.618C260.445,347.918 258.711,350.952 258.711,354.42L258.711,507.427C258.711,512.195 262.612,515.663 266.947,515.663C271.281,515.663 275.182,511.762 275.182,507.427L275.182,359.188L344.534,327.546L344.534,506.994C344.534,511.762 348.435,515.229 352.769,515.229C357.537,515.229 361.005,511.328 361.005,506.994L361.005,323.645L389.179,325.379L389.179,506.994C389.179,511.762 393.08,515.229 397.415,515.229C401.749,515.229 405.65,511.328 405.65,506.994L405.65,317.577C405.65,313.242 402.183,309.341 397.848,309.341L352.769,306.307L350.602,306.307C350.169,306.307 349.735,306.741 349.302,306.741L348.868,306.741L309.425,324.512L309.425,298.939L430.357,237.822L430.357,506.994C430.357,511.762 434.258,515.229 438.592,515.229C442.927,515.229 446.828,511.328 446.828,506.994L446.828,238.256L489.739,259.928L489.739,506.994C489.739,511.762 493.64,515.229 497.975,515.229C502.743,515.229 506.21,511.328 506.21,506.994L506.21,310.642L517.48,306.307L517.48,506.994C517.48,511.762 521.381,515.229 525.715,515.229C530.05,515.229 533.951,511.328 533.951,506.994L533.951,307.174L580.33,328.413L580.33,506.56C580.33,511.328 584.231,514.796 588.565,514.796C592.9,514.796 596.801,510.895 596.801,506.56L596.801,323.212C599.402,320.177 597.234,317.143 594.634,315.843Z" style="fill:rgb(5,57,98);fill-rule:nonzero;"/>
            <path d="M230.705,646.283C224.369,646.283 218.311,645.184 212.534,642.984C206.756,640.804 201.659,637.682 197.242,633.619C192.806,629.575 189.311,624.729 186.758,619.082C184.186,613.453 182.9,607.191 182.9,600.295C182.9,593.958 183.953,587.873 186.059,582.039C188.146,576.224 191.268,571.034 195.424,566.468C199.562,561.901 204.687,558.267 210.8,555.565C216.895,552.862 223.949,551.511 231.963,551.511C238.3,551.511 244.339,552.611 250.079,554.81C255.801,556.99 260.898,560.103 265.371,564.147C269.844,568.21 273.367,573.056 275.939,578.685C278.492,584.332 279.769,590.603 279.769,597.499C279.769,603.743 278.725,609.8 276.638,615.671C274.532,621.542 271.41,626.76 267.272,631.326C263.116,635.893 257.991,639.527 251.896,642.229C245.783,644.932 238.72,646.283 230.705,646.283ZM233.082,640.133C238.952,640.133 243.873,638.642 247.843,635.66C251.794,632.678 254.776,628.503 256.789,623.135C258.783,617.786 259.78,611.617 259.78,604.628C259.78,598.664 259.174,592.886 257.963,587.295C256.751,581.704 254.888,576.69 252.372,572.255C249.855,567.838 246.715,564.324 242.95,561.715C239.167,559.106 234.666,557.801 229.447,557.801C223.576,557.801 218.665,559.292 214.714,562.274C210.744,565.256 207.781,569.403 205.824,574.715C203.867,580.027 202.889,586.177 202.889,593.166C202.889,599.13 203.494,604.908 204.706,610.499C205.917,616.09 207.762,621.122 210.241,625.595C212.701,630.068 215.823,633.61 219.607,636.219C223.371,638.828 227.863,640.133 233.082,640.133ZM341.133,646.283C334.144,646.283 327.528,645.184 321.284,642.984C315.04,640.804 309.514,637.663 304.706,633.563C299.916,629.463 296.142,624.542 293.384,618.802C290.644,613.08 289.274,606.725 289.274,599.736C289.274,593.213 290.625,587.062 293.328,581.285C296.03,575.507 299.851,570.382 304.79,565.909C309.729,561.436 315.618,557.913 322.458,555.341C329.317,552.788 336.846,551.511 345.047,551.511C348.215,551.511 351.216,551.716 354.049,552.126C356.9,552.555 359.677,553.067 362.38,553.664C365.082,554.279 367.738,555.052 370.348,555.984C371.373,556.357 372.183,556.869 372.78,557.522C373.395,558.174 373.749,559.059 373.842,560.177C374.215,562.973 374.494,565.741 374.681,568.481C374.867,571.239 374.96,573.969 374.96,576.672C375.053,577.604 374.727,578.275 373.982,578.685C373.236,579.113 372.444,579.16 371.606,578.824C370.767,578.508 370.161,577.837 369.788,576.812C369.043,574.202 368.176,571.751 367.188,569.459C366.219,567.185 364.756,565.256 362.799,563.672C360.656,561.901 357.954,560.476 354.692,559.395C351.43,558.332 347.61,557.801 343.23,557.801C338.198,557.801 333.631,558.826 329.531,560.876C325.431,562.927 321.908,565.769 318.964,569.403C316.038,573.037 313.782,577.138 312.198,581.704C310.614,586.27 309.822,591.069 309.822,596.101C309.822,602.065 310.539,607.703 311.975,613.015C313.428,618.327 315.618,623.005 318.544,627.049C321.489,631.112 325.058,634.281 329.252,636.554C333.445,638.847 338.244,639.993 343.649,639.993C350.545,639.993 356.136,638.502 360.423,635.52C364.71,632.538 368.344,628.111 371.326,622.241C372.071,620.75 373.097,620.023 374.401,620.06C375.706,620.116 376.358,620.889 376.358,622.38C376.358,623.499 376.218,624.897 375.939,626.574C375.659,628.251 375.259,630.05 374.737,631.969C374.233,633.871 373.656,635.753 373.003,637.617C372.631,638.735 372.165,639.574 371.606,640.133C371.046,640.692 370.208,641.204 369.089,641.67C365.548,643.161 361.374,644.308 356.565,645.109C351.775,645.892 346.631,646.283 341.133,646.283ZM390.476,645.025C389.451,645.025 388.631,644.839 388.016,644.466C387.42,644.093 387.121,643.627 387.121,643.068C387.121,641.857 388.333,640.971 390.756,640.412C394.092,639.574 396.487,638.521 397.94,637.253C399.394,636.005 400.121,633.843 400.121,630.767L400.121,567.446C400.121,564.278 399.487,562.041 398.22,560.737C396.971,559.432 394.623,558.407 391.175,557.661C389.87,557.382 388.939,556.981 388.379,556.459C387.82,555.956 387.541,555.425 387.541,554.866C387.541,554.213 387.839,553.729 388.435,553.412C389.05,553.077 389.861,552.909 390.867,552.909C393.589,552.909 396.179,552.955 398.639,553.049C401.118,553.142 403.522,553.235 405.852,553.328C408.182,553.421 410.605,553.468 413.121,553.468C417.389,553.468 421.927,553.421 426.736,553.328C431.544,553.235 435.859,553.188 439.679,553.188C442.755,553.095 445.289,552.955 447.283,552.769C449.278,552.583 450.471,552.489 450.862,552.489C451.514,552.489 452.185,552.629 452.875,552.909C453.583,553.188 453.984,553.747 454.077,554.586C454.45,557.661 454.916,560.69 455.475,563.672C456.034,566.654 456.313,569.263 456.313,571.5C456.313,572.338 456.099,572.963 455.67,573.373C455.26,573.802 454.822,574.016 454.356,574.016C453.891,574.016 453.462,573.848 453.07,573.513C452.716,573.196 452.4,572.711 452.12,572.059C451.356,569.916 450.657,568.052 450.023,566.468C449.371,564.883 448.625,563.672 447.787,562.833C446.575,561.529 445.177,560.504 443.593,559.758C441.99,559.013 440.08,558.64 437.862,558.64L424.862,558.64C423.166,558.64 421.62,559.124 420.222,560.094C418.824,561.081 418.125,562.461 418.125,564.231L418.125,591.628C418.125,592.653 418.432,593.446 419.048,594.005C419.663,594.564 420.389,594.843 421.228,594.843L434.088,594.843C436.604,594.843 438.393,594.144 439.456,592.747C440.537,591.349 441.45,589.438 442.195,587.016C442.848,585.152 443.733,584.22 444.851,584.22C445.317,584.22 445.727,584.472 446.081,584.975C446.473,585.497 446.668,586.177 446.668,587.016C446.575,587.947 446.482,589.066 446.389,590.37C446.296,591.675 446.221,592.98 446.165,594.284C446.109,595.589 446.081,596.754 446.081,597.779C446.081,598.897 446.109,600.155 446.165,601.553C446.221,602.951 446.268,604.321 446.305,605.663C446.361,607.023 446.435,608.169 446.529,609.101C446.622,610.126 446.547,610.918 446.305,611.477C446.081,612.037 445.69,612.316 445.131,612.316C443.64,612.316 442.559,611.011 441.888,608.402C441.161,605.793 440.285,603.836 439.26,602.531C438.216,601.227 436.818,600.574 435.067,600.574L421.927,600.574C420.716,600.574 419.784,600.807 419.131,601.273C418.46,601.739 418.125,602.625 418.125,603.929L418.125,630.488C418.125,633.563 418.787,635.706 420.11,636.918C421.415,638.129 423.418,638.735 426.12,638.735L437.583,638.735C439.912,638.735 442.028,638.502 443.929,638.036C445.83,637.57 447.479,636.825 448.877,635.799C450.48,634.681 451.906,633.172 453.154,631.271C454.422,629.351 455.661,627.226 456.873,624.897C457.245,624.151 457.609,623.657 457.963,623.415C458.354,623.191 458.82,623.079 459.361,623.079C459.827,623.173 460.181,623.452 460.423,623.918C460.647,624.384 460.758,624.897 460.758,625.456C460.758,626.76 460.525,628.438 460.06,630.488C459.594,632.538 459.016,634.653 458.326,636.834C457.618,639.033 456.994,641.065 456.453,642.928C456.174,643.581 455.801,644.075 455.335,644.41C454.869,644.727 454.31,644.885 453.658,644.885C451.402,644.885 448.532,644.867 445.047,644.829C441.543,644.773 437.75,644.699 433.669,644.606C429.568,644.513 425.375,644.447 421.088,644.41C416.783,644.354 412.683,644.326 408.788,644.326C406.831,644.326 404.846,644.373 402.833,644.466C400.839,644.559 398.816,644.68 396.766,644.829C394.698,644.96 392.601,645.025 390.476,645.025ZM466.769,645.025C465.651,645.025 464.719,644.867 463.973,644.55C463.228,644.214 462.855,643.674 462.855,642.928C462.855,642.09 463.209,641.437 463.918,640.971C464.607,640.505 465.511,640.086 466.629,639.713C469.332,638.968 471.689,637.822 473.702,636.275C475.696,634.746 477.299,632.631 478.511,629.929C480.84,624.431 483.077,619.137 485.22,614.049C487.364,608.98 489.414,603.929 491.371,598.897C493.328,593.865 495.313,588.74 497.325,583.521C499.32,578.303 501.342,572.804 503.392,567.027C504.417,564.138 505.116,561.901 505.489,560.317C505.861,558.733 506.188,557.568 506.467,556.823C507.865,556.45 509.17,556.077 510.381,555.704C511.592,555.332 512.944,554.866 514.435,554.307C515.739,553.654 516.858,552.816 517.789,551.791C518.721,550.765 519.42,549.973 519.886,549.414C520.166,549.228 520.445,549.107 520.725,549.051C521.004,549.014 521.284,549.228 521.564,549.694C521.843,550.253 522.076,550.812 522.263,551.371C522.449,551.93 522.635,552.536 522.822,553.188C524.872,559.805 526.996,566.486 529.196,573.233C531.376,579.999 533.538,586.661 535.682,593.222C537.825,599.801 539.903,606.091 541.916,612.092C543.91,618.112 545.746,623.638 547.423,628.671C548.262,631.187 549.315,633.19 550.582,634.681C551.831,636.172 553.229,637.309 554.776,638.092C556.304,638.893 558,639.527 559.864,639.993C561.075,640.273 562.007,640.645 562.659,641.111C563.312,641.577 563.638,642.229 563.638,643.068C563.638,643.627 563.34,644.047 562.743,644.326C562.128,644.606 561.355,644.746 560.423,644.746C558.746,644.746 556.63,644.699 554.077,644.606C551.505,644.513 548.868,644.391 546.165,644.242C543.463,644.112 541.04,644.047 538.897,644.047C537.033,644.047 534.964,644.093 532.69,644.186C530.398,644.28 528.115,644.373 525.841,644.466C523.549,644.559 521.61,644.606 520.026,644.606C519.094,644.606 518.283,644.438 517.594,644.103C516.886,643.786 516.531,643.301 516.531,642.649C516.531,641.903 516.904,641.27 517.65,640.748C518.395,640.245 519.28,639.9 520.306,639.713C523.66,639.154 526.083,638.288 527.574,637.113C529.065,635.958 529.624,634.262 529.252,632.025C528.972,630.441 528.553,628.549 527.994,626.35C527.434,624.17 526.857,621.887 526.26,619.501C525.645,617.134 525.012,614.972 524.359,613.015C524.173,612.27 523.893,611.729 523.521,611.394C523.148,611.077 522.449,610.918 521.424,610.918L496.263,610.918C495.611,610.918 495.098,611.123 494.725,611.533C494.353,611.962 494.073,612.596 493.887,613.434C493.514,614.646 493.076,616.016 492.573,617.544C492.051,619.091 491.538,620.675 491.035,622.297C490.513,623.937 490.047,625.456 489.637,626.853C489.209,628.251 488.901,629.463 488.715,630.488C488.249,633.004 488.696,634.979 490.057,636.415C491.399,637.868 493.747,639.014 497.102,639.853C499.618,640.505 500.876,641.484 500.876,642.789C500.876,643.348 500.578,643.786 499.981,644.103C499.366,644.438 498.5,644.606 497.381,644.606C495.238,644.606 493.001,644.541 490.672,644.41C488.342,644.261 485.779,644.186 482.984,644.186C480.188,644.186 477.467,644.326 474.821,644.606C472.155,644.885 469.472,645.025 466.769,645.025ZM500.037,604.488L519.467,604.488C520.772,604.488 521.424,604.209 521.424,603.65C521.424,603.37 521.405,603.137 521.368,602.951C521.312,602.764 521.237,602.485 521.144,602.112L511.36,569.822C510.987,568.518 510.661,567.865 510.381,567.865C510.195,567.865 509.869,568.471 509.403,569.683L497.661,602.112C497.475,602.578 497.381,602.951 497.381,603.23C497.381,603.696 497.642,604.022 498.164,604.209C498.667,604.395 499.292,604.488 500.037,604.488ZM657.292,646.842C656.174,646.842 654.31,646.143 651.701,644.746C649.091,643.348 646.435,640.925 643.733,637.477C642.149,635.706 640.22,633.535 637.946,630.963C635.654,628.41 633.138,625.595 630.398,622.52C627.639,619.445 624.769,616.23 621.787,612.875C618.805,609.52 615.851,606.166 612.925,602.811C609.98,599.456 607.11,596.241 604.315,593.166C601.519,590.091 598.956,587.267 596.627,584.695C594.297,582.142 592.34,579.933 590.756,578.07C590.383,577.604 589.982,577.203 589.554,576.867C589.144,576.551 588.799,576.392 588.519,576.392C588.146,576.392 587.867,576.718 587.68,577.371C587.494,578.023 587.401,578.629 587.401,579.188C587.401,583.474 587.42,588.553 587.457,594.424C587.513,600.295 587.541,606.259 587.541,612.316L587.541,629.09C587.541,631.979 588.379,634.355 590.057,636.219C591.734,638.083 594.39,639.434 598.024,640.273C599.143,640.459 600.102,640.757 600.904,641.167C601.687,641.596 602.078,642.183 602.078,642.928C602.078,643.581 601.705,644.047 600.96,644.326C600.214,644.606 599.376,644.746 598.444,644.746C595.928,644.746 593.924,644.699 592.433,644.606C590.942,644.513 589.591,644.419 588.379,644.326C587.168,644.233 585.63,644.186 583.767,644.186C581.81,644.186 580.067,644.233 578.539,644.326C576.992,644.419 575.613,644.541 574.401,644.69C573.19,644.82 572.025,644.885 570.907,644.885C569.975,644.885 569.136,644.727 568.391,644.41C567.645,644.075 567.272,643.627 567.272,643.068C567.272,642.323 567.617,641.745 568.307,641.335C569.015,640.906 569.975,640.505 571.186,640.133C573.609,639.387 575.408,638.008 576.582,635.995C577.737,634.001 578.455,631.606 578.734,628.81C579.107,625.269 579.48,620.628 579.853,614.888C580.225,609.166 580.57,602.718 580.887,595.542C581.223,588.367 581.39,580.958 581.39,573.317C581.39,568.471 580.151,564.977 577.672,562.833C575.212,560.69 572.118,558.966 568.391,557.661C567.738,557.475 566.9,557.102 565.874,556.543C564.849,555.984 564.337,555.285 564.337,554.446C564.337,553.608 564.71,553.049 565.455,552.769C566.201,552.489 566.993,552.35 567.831,552.35C569.788,552.35 571.745,552.396 573.702,552.489C575.659,552.583 577.644,552.657 579.657,552.713C581.651,552.75 583.748,552.816 585.947,552.909C588.128,553.002 590.476,553.049 592.992,553.049C593.831,553.049 594.455,553.207 594.865,553.524C595.294,553.859 595.695,554.307 596.067,554.866C597.558,556.636 599.469,558.845 601.798,561.491C604.128,564.157 606.672,567.092 609.431,570.298C612.17,573.522 615.059,576.905 618.097,580.446C621.116,583.987 624.145,587.528 627.183,591.069C630.202,594.61 633.11,597.984 635.905,601.189C638.701,604.414 641.245,607.349 643.537,609.996C645.811,612.661 647.694,614.832 649.185,616.51C649.557,616.882 650.005,617.348 650.526,617.907C651.03,618.467 651.468,618.746 651.84,618.746C652.586,618.746 653.005,617.954 653.098,616.37L653.098,607.06C653.098,603.296 653.126,599.111 653.182,594.508C653.22,589.886 653.22,585.152 653.182,580.306C653.126,575.46 653.052,570.801 652.959,566.328C652.865,563.998 651.906,562.153 650.079,560.793C648.271,559.451 646.016,558.5 643.314,557.941C642.195,557.661 641.152,557.307 640.183,556.879C639.195,556.469 638.701,555.844 638.701,555.006C638.701,554.353 639.195,553.887 640.183,553.608C641.152,553.328 642.056,553.188 642.894,553.188L647.591,553.188C648.84,553.188 650.023,553.207 651.141,553.244C652.26,553.3 653.425,553.328 654.636,553.328C656.686,553.328 658.364,553.3 659.668,553.244C660.973,553.207 662.399,553.142 663.945,553.049C665.474,552.955 667.496,552.909 670.012,552.909C671.13,552.909 672.044,553.077 672.752,553.412C673.441,553.729 673.786,554.167 673.786,554.726C673.786,556.124 672.435,557.102 669.732,557.661C666.471,558.314 664.169,559.199 662.827,560.317C661.467,561.436 660.74,563.299 660.647,565.909C660.647,568.238 660.619,571.22 660.563,574.855C660.525,578.489 660.46,582.449 660.367,586.736C660.274,591.023 660.162,595.403 660.032,599.876C659.882,604.349 659.789,608.728 659.752,613.015C659.696,617.302 659.668,621.169 659.668,624.617C659.668,626.853 659.761,629.137 659.948,631.466C660.134,633.796 660.339,635.865 660.563,637.673C660.805,639.499 660.926,640.785 660.926,641.531C660.926,643.581 660.6,644.979 659.948,645.724C659.295,646.47 658.41,646.842 657.292,646.842Z" style="fill:rgb(5,57,98);fill-rule:nonzero;"/>
            <path id="text-1" d="M183.481,682.261C183.326,682.261 183.19,682.224 183.074,682.149C182.958,682.079 182.9,681.971 182.9,681.826C182.9,681.495 183.103,681.278 183.51,681.174C184.246,681.008 184.755,680.795 185.038,680.534C185.317,680.277 185.457,679.807 185.457,679.124L185.457,665.208C185.457,664.504 185.34,663.991 185.108,663.668C184.876,663.349 184.411,663.106 183.713,662.941C183.462,662.879 183.287,662.79 183.19,662.674C183.094,662.562 183.045,662.433 183.045,662.288C183.045,662.164 183.103,662.057 183.22,661.965C183.336,661.87 183.491,661.823 183.684,661.823C184.13,661.823 184.581,661.833 185.038,661.854C185.492,661.874 185.937,661.899 186.375,661.928C186.809,661.961 187.219,661.978 187.607,661.978C188.071,661.978 188.484,661.951 188.844,661.897C189.201,661.847 189.598,661.796 190.036,661.742C190.469,661.692 190.996,661.667 191.616,661.667C193.979,661.667 195.854,662.199 197.241,663.264C198.624,664.332 199.315,665.798 199.315,667.662C199.315,668.967 199.06,670.168 198.548,671.265C198.033,672.363 197.258,673.247 196.224,673.918C195.186,674.593 193.873,674.931 192.284,674.931C191.781,674.931 191.399,674.848 191.14,674.682C190.876,674.516 190.744,674.32 190.744,674.092C190.744,673.947 190.808,673.827 190.936,673.732C191.06,673.641 191.171,673.595 191.267,673.595C191.48,673.595 191.664,673.62 191.819,673.67C191.974,673.723 192.187,673.75 192.459,673.75C193.272,673.75 193.888,673.264 194.306,672.29C194.721,671.317 194.928,670.033 194.928,668.439C194.928,666.534 194.638,665.156 194.057,664.307C193.475,663.458 192.662,663.034 191.616,663.034C191.074,663.034 190.663,663.162 190.384,663.419C190.101,663.68 189.96,664.08 189.96,664.618L189.931,679.062C189.931,679.725 190.096,680.195 190.425,680.472C190.754,680.754 191.326,680.988 192.139,681.174C192.352,681.216 192.511,681.282 192.615,681.373C192.724,681.468 192.778,681.609 192.778,681.795C192.778,681.94 192.73,682.054 192.633,682.137C192.536,682.22 192.4,682.261 192.226,682.261C191.8,682.261 191.312,682.247 190.762,682.218C190.208,682.185 189.66,682.158 189.117,682.137C188.575,682.116 188.11,682.106 187.723,682.106C187.316,682.106 186.871,682.116 186.386,682.137C185.902,682.158 185.404,682.185 184.893,682.218C184.378,682.247 183.907,682.261 183.481,682.261ZM218.781,682.82C217.793,682.82 216.961,682.692 216.283,682.435C215.605,682.174 215.028,681.831 214.551,681.404C214.078,680.982 213.658,680.501 213.29,679.963C212.864,679.362 212.451,678.762 212.052,678.161C211.657,677.561 211.266,676.908 210.879,676.204C210.491,675.5 210.085,674.693 209.658,673.781C209.465,673.326 209.203,673.005 208.874,672.818C208.7,672.694 208.525,672.611 208.351,672.57C208.177,672.529 208.022,672.508 207.886,672.508C207.789,672.508 207.712,672.564 207.654,672.676C207.596,672.792 207.567,672.943 207.567,673.129L207.567,679.062C207.567,679.704 207.731,680.17 208.06,680.46C208.39,680.75 208.961,680.988 209.775,681.174C209.988,681.216 210.147,681.282 210.251,681.373C210.36,681.468 210.414,681.609 210.414,681.795C210.414,681.94 210.365,682.054 210.269,682.137C210.172,682.22 210.036,682.261 209.862,682.261C209.436,682.261 208.946,682.247 208.392,682.218C207.842,682.185 207.295,682.158 206.753,682.137C206.211,682.116 205.746,682.106 205.358,682.106C204.952,682.106 204.506,682.116 204.022,682.137C203.538,682.158 203.038,682.185 202.523,682.218C202.011,682.247 201.543,682.261 201.117,682.261C200.962,682.261 200.826,682.224 200.71,682.149C200.594,682.079 200.536,681.971 200.536,681.826C200.536,681.495 200.739,681.278 201.146,681.174C201.882,681.008 202.389,680.795 202.668,680.534C202.951,680.277 203.092,679.807 203.092,679.124L203.092,665.177C203.092,664.68 203.048,664.287 202.959,663.997C202.873,663.707 202.705,663.483 202.453,663.326C202.201,663.173 201.833,663.044 201.349,662.941C201.097,662.879 200.923,662.79 200.826,662.674C200.729,662.562 200.681,662.433 200.681,662.288C200.681,662.164 200.739,662.057 200.855,661.965C200.971,661.87 201.126,661.823 201.32,661.823C201.94,661.823 202.447,661.843 202.842,661.885C203.241,661.926 203.619,661.961 203.976,661.99C204.336,662.023 204.758,662.04 205.242,662.04C205.688,662.04 206.079,662.015 206.416,661.965C206.757,661.912 207.144,661.864 207.578,661.823C208.016,661.781 208.574,661.76 209.252,661.76C211.518,661.76 213.261,662.175 214.481,663.003C215.702,663.831 216.312,665.084 216.312,666.761C216.312,667.693 216.122,668.474 215.742,669.103C215.367,669.737 214.892,670.255 214.319,670.657C213.749,671.062 213.174,671.369 212.593,671.576C212.515,671.597 212.481,671.644 212.488,671.719C212.5,671.789 212.525,671.866 212.564,671.949C213.145,672.86 213.71,673.744 214.261,674.601C214.814,675.463 215.382,676.26 215.963,676.993C216.544,677.73 217.145,678.41 217.764,679.031C218.423,679.693 219.095,680.081 219.781,680.193C220.47,680.309 221.154,680.366 221.832,680.366C222.122,680.366 222.268,680.553 222.268,680.926C222.268,681.381 222.117,681.748 221.815,682.025C221.516,682.307 221.106,682.51 220.583,682.634C220.06,682.758 219.459,682.82 218.781,682.82ZM208.671,671.514C209.407,671.514 210.017,671.338 210.501,670.986C210.985,670.634 211.353,670.151 211.605,669.538C211.857,668.929 211.983,668.232 211.983,667.445C211.983,666.492 211.867,665.695 211.634,665.053C211.402,664.411 211.053,663.929 210.588,663.605C210.123,663.287 209.523,663.127 208.787,663.127C208.361,663.127 208.055,663.307 207.869,663.668C207.687,664.032 207.596,664.804 207.596,665.985C207.576,666.461 207.567,667.062 207.567,667.786L207.567,670.365C207.567,670.779 207.667,671.075 207.869,671.253C208.074,671.427 208.341,671.514 208.671,671.514ZM233.012,682.603C231.675,682.603 230.403,682.359 229.194,681.87C227.982,681.385 226.907,680.692 225.969,679.789C225.032,678.89 224.296,677.813 223.761,676.558C223.23,675.308 222.965,673.916 222.965,672.384C222.965,670.975 223.182,669.623 223.616,668.327C224.054,667.035 224.708,665.881 225.58,664.867C226.451,663.852 227.53,663.044 228.816,662.444C230.103,661.843 231.59,661.543 233.279,661.543C234.635,661.543 235.917,661.787 237.126,662.276C238.338,662.761 239.408,663.452 240.333,664.351C241.263,665.254 242.001,666.331 242.547,667.581C243.09,668.836 243.361,670.23 243.361,671.762C243.361,673.15 243.138,674.496 242.693,675.8C242.243,677.105 241.583,678.265 240.711,679.279C239.839,680.294 238.761,681.102 237.474,681.702C236.184,682.303 234.697,682.603 233.012,682.603ZM233.541,681.174C234.641,681.174 235.565,680.843 236.312,680.18C237.056,679.517 237.612,678.596 237.98,677.416C238.348,676.235 238.532,674.879 238.532,673.346C238.532,672.083 238.422,670.835 238.201,669.6C237.976,668.37 237.627,667.258 237.155,666.264C236.682,665.27 236.076,664.477 235.336,663.885C234.6,663.297 233.728,663.003 232.721,663.003C231.64,663.003 230.726,663.334 229.979,663.997C229.231,664.659 228.675,665.571 228.311,666.73C227.943,667.89 227.759,669.236 227.759,670.768C227.759,672.052 227.873,673.309 228.102,674.539C228.338,675.773 228.687,676.888 229.148,677.882C229.613,678.876 230.209,679.673 230.937,680.273C231.662,680.874 232.53,681.174 233.541,681.174ZM245.272,682.261C245.118,682.261 244.982,682.224 244.866,682.149C244.75,682.079 244.691,681.971 244.691,681.826C244.691,681.495 244.895,681.278 245.302,681.174C246.038,681.008 246.547,680.795 246.83,680.534C247.109,680.277 247.248,679.807 247.248,679.124L247.248,665.208C247.248,664.504 247.132,663.991 246.9,663.668C246.667,663.349 246.202,663.106 245.505,662.941C245.253,662.879 245.079,662.79 244.982,662.674C244.885,662.562 244.837,662.433 244.837,662.288C244.837,662.164 244.895,662.057 245.011,661.965C245.127,661.87 245.282,661.823 245.476,661.823C245.921,661.823 246.373,661.833 246.83,661.854C247.283,661.874 247.729,661.899 248.166,661.928C248.6,661.961 249.011,661.978 249.398,661.978C249.863,661.978 250.276,661.951 250.636,661.897C250.992,661.847 251.389,661.796 251.827,661.742C252.261,661.692 252.788,661.667 253.408,661.667C255.771,661.667 257.646,662.199 259.032,663.264C260.415,664.332 261.107,665.798 261.107,667.662C261.107,668.967 260.851,670.168 260.34,671.265C259.825,672.363 259.05,673.247 258.015,673.918C256.977,674.593 255.664,674.931 254.076,674.931C253.572,674.931 253.191,674.848 252.931,674.682C252.668,674.516 252.536,674.32 252.536,674.092C252.536,673.947 252.6,673.827 252.728,673.732C252.852,673.641 252.962,673.595 253.059,673.595C253.272,673.595 253.456,673.62 253.611,673.67C253.766,673.723 253.979,673.75 254.25,673.75C255.064,673.75 255.68,673.264 256.098,672.29C256.512,671.317 256.72,670.033 256.72,668.439C256.72,666.534 256.429,665.156 255.848,664.307C255.267,663.458 254.453,663.034 253.408,663.034C252.865,663.034 252.455,663.162 252.176,663.419C251.893,663.68 251.751,664.08 251.751,664.618L251.722,679.062C251.722,679.725 251.887,680.195 252.216,680.472C252.546,680.754 253.117,680.988 253.931,681.174C254.144,681.216 254.304,681.282 254.413,681.373C254.517,681.468 254.57,681.609 254.57,681.795C254.57,681.94 254.521,682.054 254.424,682.137C254.328,682.22 254.192,682.261 254.018,682.261C253.592,682.261 253.103,682.247 252.553,682.218C251.999,682.185 251.451,682.158 250.909,682.137C250.367,682.116 249.902,682.106 249.514,682.106C249.108,682.106 248.662,682.116 248.178,682.137C247.694,682.158 247.196,682.185 246.685,682.218C246.169,682.247 245.699,682.261 245.272,682.261ZM263.024,682.323C262.831,682.323 262.681,682.278 262.577,682.187C262.468,682.091 262.414,681.982 262.414,681.857C262.414,681.547 262.627,681.329 263.053,681.205C263.712,681.019 264.183,680.801 264.465,680.553C264.744,680.304 264.884,679.849 264.884,679.186L264.884,665.053C264.884,664.39 264.758,663.914 264.506,663.624C264.254,663.334 263.78,663.106 263.082,662.941C262.831,662.879 262.656,662.79 262.559,662.674C262.463,662.562 262.414,662.433 262.414,662.288C262.414,662.164 262.472,662.057 262.589,661.965C262.705,661.87 262.86,661.823 263.053,661.823C263.538,661.823 264.032,661.833 264.535,661.854C265.039,661.874 265.533,661.899 266.017,661.928C266.501,661.961 266.966,661.978 267.411,661.978C268.419,661.978 269.494,661.967 270.636,661.947C271.779,661.926 272.796,661.905 273.687,661.885C274.307,661.885 274.82,661.847 275.227,661.773C275.634,661.702 275.876,661.667 275.953,661.667C276.089,661.667 276.238,661.715 276.401,661.81C276.567,661.901 276.66,662.05 276.68,662.257C276.757,663.003 276.854,663.728 276.97,664.432C277.086,665.136 277.144,665.757 277.144,666.295C277.144,666.482 277.106,666.627 277.028,666.73C276.951,666.834 276.864,666.886 276.767,666.886C276.67,666.886 276.569,666.844 276.465,666.761C276.356,666.679 276.273,666.554 276.215,666.389C276.021,665.871 275.847,665.426 275.692,665.053C275.537,664.68 275.362,664.38 275.169,664.152C274.936,663.924 274.656,663.707 274.326,663.5C273.997,663.293 273.581,663.189 273.077,663.189L270.898,663.189C270.472,663.189 270.104,663.307 269.794,663.543C269.484,663.784 269.329,664.121 269.329,664.556L269.329,670.427C269.329,670.675 269.397,670.862 269.532,670.986C269.668,671.11 269.842,671.172 270.055,671.172L272.612,671.172C273.116,671.172 273.48,670.992 273.704,670.632C273.925,670.267 274.123,669.826 274.297,669.308C274.433,668.915 274.626,668.718 274.878,668.718C274.975,668.718 275.062,668.774 275.14,668.886C275.217,669.002 275.246,669.174 275.227,669.402C275.208,669.65 275.188,669.919 275.169,670.209C275.149,670.499 275.134,670.789 275.122,671.079C275.115,671.369 275.111,671.648 275.111,671.918C275.111,672.166 275.115,672.435 275.122,672.725C275.134,673.015 275.146,673.305 275.157,673.595C275.165,673.885 275.178,674.164 275.198,674.434C275.237,674.724 275.227,674.935 275.169,675.067C275.111,675.204 275.024,675.272 274.907,675.272C274.597,675.272 274.375,675.003 274.239,674.465C274.065,673.843 273.871,673.367 273.658,673.036C273.445,672.705 273.145,672.539 272.757,672.539L270.055,672.539C269.823,672.539 269.643,672.595 269.515,672.707C269.391,672.823 269.329,673.005 269.329,673.253L269.329,679.155C269.329,679.776 269.455,680.211 269.707,680.46C269.958,680.708 270.346,680.832 270.869,680.832L273.367,680.832C273.794,680.832 274.2,680.781 274.588,680.677C274.975,680.574 275.304,680.398 275.576,680.149C275.905,679.859 276.205,679.497 276.476,679.062C276.747,678.627 276.999,678.161 277.232,677.664C277.309,677.519 277.392,677.42 277.481,677.366C277.567,677.316 277.667,677.291 277.784,677.291C277.88,677.291 277.952,677.353 277.999,677.478C278.049,677.602 278.074,677.737 278.074,677.882C278.074,678.234 278.026,678.627 277.929,679.062C277.832,679.497 277.71,679.956 277.563,680.441C277.419,680.93 277.28,681.412 277.144,681.889C277.106,682.033 277.024,682.137 276.9,682.199C276.773,682.261 276.641,682.292 276.505,682.292C276.253,682.292 275.783,682.288 275.093,682.28C274.408,682.267 273.6,682.251 272.67,682.23C271.74,682.209 270.782,682.195 269.794,682.187C268.806,682.174 267.886,682.168 267.034,682.168C266.646,682.168 266.22,682.178 265.755,682.199C265.291,682.22 264.82,682.247 264.343,682.28C263.871,682.309 263.431,682.323 263.024,682.323ZM297.279,682.82C296.291,682.82 295.458,682.692 294.78,682.435C294.102,682.174 293.525,681.831 293.048,681.404C292.576,680.982 292.156,680.501 291.788,679.963C291.361,679.362 290.949,678.762 290.55,678.161C290.155,677.561 289.763,676.908 289.376,676.204C288.989,675.5 288.582,674.693 288.156,673.781C287.962,673.326 287.701,673.005 287.371,672.818C287.197,672.694 287.023,672.611 286.848,672.57C286.674,672.529 286.519,672.508 286.384,672.508C286.287,672.508 286.209,672.564 286.151,672.676C286.093,672.792 286.064,672.943 286.064,673.129L286.064,679.062C286.064,679.704 286.229,680.17 286.558,680.46C286.887,680.75 287.459,680.988 288.272,681.174C288.485,681.216 288.644,681.282 288.749,681.373C288.857,681.468 288.911,681.609 288.911,681.795C288.911,681.94 288.863,682.054 288.766,682.137C288.669,682.22 288.534,682.261 288.359,682.261C287.933,682.261 287.443,682.247 286.889,682.218C286.339,682.185 285.793,682.158 285.25,682.137C284.708,682.116 284.243,682.106 283.856,682.106C283.449,682.106 283.004,682.116 282.519,682.137C282.035,682.158 281.535,682.185 281.02,682.218C280.509,682.247 280.04,682.261 279.614,682.261C279.459,682.261 279.323,682.224 279.207,682.149C279.091,682.079 279.033,681.971 279.033,681.826C279.033,681.495 279.236,681.278 279.643,681.174C280.379,681.008 280.887,680.795 281.165,680.534C281.448,680.277 281.59,679.807 281.59,679.124L281.59,665.177C281.59,664.68 281.545,664.287 281.456,663.997C281.371,663.707 281.202,663.483 280.95,663.326C280.699,663.173 280.331,663.044 279.846,662.941C279.595,662.879 279.42,662.79 279.323,662.674C279.227,662.562 279.178,662.433 279.178,662.288C279.178,662.164 279.236,662.057 279.353,661.965C279.469,661.87 279.624,661.823 279.817,661.823C280.437,661.823 280.945,661.843 281.34,661.885C281.739,661.926 282.117,661.961 282.473,661.99C282.833,662.023 283.255,662.04 283.74,662.04C284.185,662.04 284.576,662.015 284.913,661.965C285.254,661.912 285.642,661.864 286.076,661.823C286.513,661.781 287.071,661.76 287.749,661.76C290.015,661.76 291.758,662.175 292.979,663.003C294.199,663.831 294.809,665.084 294.809,666.761C294.809,667.693 294.619,668.474 294.24,669.103C293.864,669.737 293.389,670.255 292.816,670.657C292.247,671.062 291.671,671.369 291.09,671.576C291.013,671.597 290.978,671.644 290.986,671.719C290.997,671.789 291.022,671.866 291.061,671.949C291.642,672.86 292.208,673.744 292.758,674.601C293.312,675.463 293.879,676.26 294.46,676.993C295.042,677.73 295.642,678.41 296.262,679.031C296.92,679.693 297.592,680.081 298.278,680.193C298.968,680.309 299.651,680.366 300.329,680.366C300.62,680.366 300.765,680.553 300.765,680.926C300.765,681.381 300.614,681.748 300.312,682.025C300.014,682.307 299.603,682.51 299.08,682.634C298.557,682.758 297.957,682.82 297.279,682.82ZM287.168,671.514C287.904,671.514 288.514,671.338 288.998,670.986C289.483,670.634 289.851,670.151 290.102,669.538C290.354,668.929 290.48,668.232 290.48,667.445C290.48,666.492 290.364,665.695 290.131,665.053C289.899,664.411 289.55,663.929 289.086,663.605C288.621,663.287 288.02,663.127 287.284,663.127C286.858,663.127 286.552,663.307 286.366,663.668C286.184,664.032 286.093,664.804 286.093,665.985C286.074,666.461 286.064,667.062 286.064,667.786L286.064,670.365C286.064,670.779 286.165,671.075 286.366,671.253C286.571,671.427 286.839,671.514 287.168,671.514ZM306.605,682.261C306.465,682.261 306.32,682.224 306.169,682.149C306.014,682.079 305.937,681.971 305.937,681.826C305.937,681.64 306.005,681.495 306.14,681.392C306.272,681.288 306.434,681.216 306.628,681.174C307.368,681.008 307.907,680.791 308.244,680.522C308.584,680.253 308.755,679.787 308.755,679.124L308.755,666.295C308.755,665.488 308.736,664.891 308.697,664.506C308.658,664.125 308.604,663.866 308.534,663.73C308.464,663.597 308.381,663.51 308.284,663.469C308.114,663.365 307.887,663.307 307.604,663.295C307.325,663.287 307.097,663.282 306.919,663.282L306.285,663.282C305.666,663.282 305.079,663.442 304.525,663.761C303.975,664.084 303.533,664.483 303.2,664.96C303.103,665.105 302.964,665.306 302.781,665.562C302.599,665.823 302.406,666.051 302.2,666.246C301.995,666.445 301.796,666.544 301.602,666.544C301.451,666.544 301.346,666.486 301.288,666.37C301.23,666.258 301.201,666.13 301.201,665.985C301.201,665.736 301.259,665.477 301.375,665.208C301.743,664.421 302.013,663.748 302.183,663.189C302.361,662.63 302.479,661.988 302.537,661.263C302.576,660.953 302.663,660.739 302.799,660.624C302.931,660.512 303.086,660.456 303.264,660.456C303.399,660.456 303.545,660.59 303.7,660.86C303.851,661.129 304.015,661.346 304.193,661.512C304.387,661.678 304.711,661.802 305.164,661.885C305.621,661.967 305.995,662.009 306.285,662.009L317.21,662.009C317.694,662.009 318.104,661.957 318.441,661.854C318.782,661.75 319.04,661.646 319.214,661.543C319.524,661.357 319.77,661.149 319.952,660.922C320.138,660.694 320.357,660.58 320.609,660.58C320.721,660.58 320.803,660.628 320.853,660.723C320.899,660.814 320.923,660.942 320.923,661.108C320.923,661.191 320.919,661.294 320.911,661.419C320.903,661.543 320.888,661.657 320.865,661.76C320.768,662.154 320.671,662.531 320.574,662.891C320.477,663.255 320.4,663.603 320.342,663.935C320.287,664.266 320.26,664.608 320.26,664.96L320.26,665.581C320.26,665.912 320.225,666.182 320.156,666.389C320.086,666.596 319.954,666.699 319.76,666.699C319.59,666.699 319.445,666.6 319.325,666.401C319.212,666.206 319.088,665.892 318.953,665.457C318.74,664.711 318.424,664.163 318.006,663.81C317.587,663.458 316.954,663.282 316.106,663.282L314.595,663.282C314.262,663.282 313.994,663.359 313.793,663.512C313.591,663.67 313.442,663.98 313.345,664.444C313.249,664.912 313.2,665.622 313.2,666.575L313.2,679.093C313.2,679.714 313.359,680.164 313.677,680.441C313.998,680.723 314.537,680.967 315.292,681.174C315.486,681.236 315.648,681.309 315.78,681.392C315.916,681.474 315.983,681.609 315.983,681.795C315.983,681.94 315.927,682.054 315.815,682.137C315.695,682.22 315.55,682.261 315.379,682.261C314.953,682.261 314.473,682.247 313.938,682.218C313.407,682.185 312.875,682.158 312.34,682.137C311.809,682.116 311.35,682.106 310.963,682.106C310.556,682.106 310.095,682.116 309.58,682.137C309.065,682.158 308.552,682.185 308.04,682.218C307.525,682.247 307.047,682.261 306.605,682.261ZM326.414,682.354C326.162,682.354 325.959,682.309 325.804,682.218C325.649,682.123 325.571,682.002 325.571,681.857C325.571,681.671 325.658,681.526 325.833,681.423C326.007,681.319 326.21,681.247 326.443,681.205C327.179,681.039 327.692,680.754 327.983,680.348C328.273,679.946 328.418,679.414 328.418,678.751L328.418,674.465C328.418,673.74 328.327,673.139 328.145,672.663C327.959,672.187 327.75,671.742 327.518,671.327L323.77,665.146C323.615,664.856 323.431,664.566 323.218,664.276C323.005,663.986 322.759,663.721 322.48,663.481C322.197,663.245 321.872,663.075 321.504,662.972C321.31,662.889 321.145,662.806 321.01,662.723C320.874,662.64 320.806,662.496 320.806,662.288C320.806,662.143 320.87,662.036 320.998,661.965C321.122,661.891 321.262,661.854 321.417,661.854C322.23,661.854 323.011,661.885 323.758,661.947C324.502,662.009 325.29,662.04 326.123,662.04C326.762,662.04 327.369,662.009 327.942,661.947C328.511,661.885 329.116,661.854 329.755,661.854C329.929,661.854 330.104,661.891 330.278,661.965C330.452,662.036 330.539,662.143 330.539,662.288C330.539,662.454 330.452,662.593 330.278,662.705C330.104,662.821 329.91,662.899 329.697,662.941C329.174,663.086 328.796,663.235 328.564,663.388C328.331,663.545 328.215,663.79 328.215,664.121C328.215,664.432 328.322,664.794 328.535,665.208L331.527,670.706C331.702,671.079 331.876,671.265 332.05,671.265C332.128,671.265 332.211,671.218 332.3,671.122C332.385,671.031 332.476,670.893 332.573,670.706C333.038,669.857 333.48,669.012 333.898,668.172C334.313,667.335 334.723,666.44 335.13,665.488C335.227,665.281 335.31,665.063 335.38,664.836C335.446,664.608 335.479,664.401 335.479,664.214C335.479,663.821 335.31,663.521 334.973,663.313C334.632,663.106 334.278,662.993 333.91,662.972C333.716,662.93 333.518,662.852 333.317,662.736C333.112,662.624 333.009,662.475 333.009,662.288C333.009,662.143 333.102,662.04 333.288,661.978C333.47,661.916 333.658,661.885 333.852,661.885C334.413,661.885 334.917,661.905 335.362,661.947C335.808,661.988 336.292,662.009 336.815,662.009C337.319,662.009 337.803,661.972 338.268,661.897C338.733,661.827 339.236,661.791 339.779,661.791C339.992,661.791 340.191,661.823 340.377,661.885C340.559,661.947 340.65,662.081 340.65,662.288C340.65,662.475 340.553,662.609 340.36,662.692C340.166,662.775 339.963,662.858 339.749,662.941C339.168,663.086 338.674,663.345 338.268,663.717C337.861,664.09 337.512,664.535 337.222,665.053C336.912,665.591 336.608,666.113 336.309,666.618C336.007,667.128 335.717,667.631 335.438,668.128C335.155,668.625 334.868,669.122 334.578,669.619C334.287,670.116 333.997,670.634 333.706,671.172C333.551,671.462 333.412,671.762 333.288,672.073C333.16,672.384 333.063,672.705 332.997,673.036C332.928,673.367 332.893,673.75 332.893,674.185L332.893,678.751C332.893,679.517 333.038,680.06 333.329,680.379C333.619,680.702 334.142,680.977 334.897,681.205C335.13,681.267 335.329,681.34 335.496,681.423C335.659,681.505 335.74,681.64 335.74,681.826C335.74,681.971 335.668,682.091 335.525,682.187C335.378,682.278 335.198,682.323 334.985,682.323C334.559,682.323 334.084,682.303 333.561,682.261C333.038,682.22 332.521,682.183 332.01,682.149C331.494,682.12 331.043,682.106 330.656,682.106C330.249,682.106 329.803,682.12 329.319,682.149C328.835,682.183 328.341,682.226 327.837,682.28C327.334,682.33 326.859,682.354 326.414,682.354ZM347.972,682.261C347.739,682.261 347.565,682.224 347.449,682.149C347.332,682.079 347.274,681.971 347.274,681.826C347.274,681.64 347.356,681.52 347.518,681.466C347.685,681.416 347.875,681.35 348.088,681.267C348.533,681.102 348.925,680.812 349.262,680.398C349.603,679.983 349.812,679.455 349.889,678.813C350.005,677.861 350.126,676.685 350.249,675.285C350.377,673.889 350.509,672.394 350.645,670.799C350.78,669.205 350.896,667.631 350.993,666.078C351.013,665.954 351.022,665.798 351.022,665.612L351.022,665.022C351.022,664.649 350.968,664.353 350.86,664.134C350.755,663.918 350.577,663.738 350.325,663.593C350.093,663.427 349.841,663.287 349.57,663.171C349.298,663.059 349.008,662.961 348.698,662.879C348.466,662.816 348.282,662.734 348.146,662.63C348.01,662.527 347.943,662.392 347.943,662.226C347.943,662.04 348.02,661.916 348.175,661.854C348.33,661.791 348.514,661.76 348.727,661.76C349.018,661.76 349.376,661.771 349.802,661.791C350.228,661.812 350.697,661.827 351.208,661.835C351.723,661.847 352.246,661.864 352.777,661.885C353.312,661.905 353.802,661.916 354.247,661.916C354.402,661.916 354.547,661.972 354.683,662.083C354.819,662.199 354.906,662.33 354.945,662.475C355.08,662.868 355.206,663.245 355.322,663.605C355.438,663.97 355.564,664.349 355.7,664.742L359.971,675.645C360.01,675.728 360.062,675.773 360.128,675.782C360.197,675.794 360.252,675.749 360.29,675.645L364.445,665.333C364.581,664.608 364.691,664.018 364.776,663.562C364.865,663.106 364.949,662.744 365.026,662.475C365.104,662.206 365.259,662.071 365.491,662.071L366.74,662.071C367.554,662.03 368.4,661.961 369.28,661.866C370.163,661.775 370.856,661.729 371.36,661.729C371.554,661.729 371.722,661.765 371.865,661.835C372.013,661.909 372.086,662.03 372.086,662.195C372.086,662.382 372.022,662.516 371.895,662.599C371.771,662.682 371.612,662.754 371.418,662.816C371.302,662.858 371.166,662.914 371.011,662.984C370.856,663.059 370.721,663.127 370.605,663.189C370.101,663.438 369.727,663.721 369.483,664.04C369.243,664.363 369.142,664.877 369.181,665.581C369.22,667.072 369.268,668.377 369.326,669.495C369.384,670.613 369.437,671.648 369.483,672.601C369.533,673.554 369.592,674.541 369.657,675.564C369.727,676.591 369.801,677.788 369.878,679.155C369.917,679.693 370.124,680.122 370.5,680.441C370.88,680.764 371.379,681.008 371.999,681.174C372.193,681.236 372.357,681.309 372.493,681.392C372.629,681.474 372.696,681.609 372.696,681.795C372.696,681.94 372.638,682.054 372.522,682.137C372.406,682.22 372.261,682.261 372.086,682.261C371.66,682.261 371.17,682.247 370.616,682.218C370.066,682.185 369.524,682.158 368.989,682.137C368.458,682.116 367.999,682.106 367.612,682.106C367.225,682.106 366.793,682.116 366.316,682.137C365.844,682.158 365.365,682.185 364.881,682.218C364.397,682.247 363.932,682.261 363.486,682.261C363.312,682.261 363.157,682.224 363.022,682.149C362.886,682.079 362.818,681.971 362.818,681.826C362.818,681.64 362.886,681.495 363.022,681.392C363.157,681.288 363.322,681.216 363.515,681.174C364.232,681.029 364.726,680.816 364.997,680.534C365.268,680.257 365.394,679.797 365.375,679.155C365.317,677.871 365.268,676.591 365.23,675.316C365.191,674.044 365.156,672.794 365.125,671.564C365.098,670.329 365.055,669.132 364.997,667.973C364.997,667.828 364.962,667.759 364.893,667.768C364.827,667.78 364.765,667.859 364.707,668.004L359.157,682.106C359.061,682.396 358.915,682.52 358.722,682.479C358.528,682.437 358.392,682.334 358.315,682.168C357.366,679.766 356.372,677.395 355.334,675.055C354.3,672.715 353.347,670.396 352.475,668.097C352.417,667.911 352.324,667.842 352.196,667.892C352.072,667.946 352,668.087 351.981,668.314C351.923,669.35 351.875,670.485 351.836,671.719C351.797,672.949 351.778,674.189 351.778,675.44L351.778,678.938C351.778,679.517 351.952,679.988 352.301,680.348C352.649,680.712 353.201,680.988 353.957,681.174C354.15,681.216 354.334,681.282 354.509,681.373C354.683,681.468 354.77,681.609 354.77,681.795C354.77,681.94 354.693,682.054 354.538,682.137C354.383,682.22 354.218,682.261 354.044,682.261C353.521,682.261 353.114,682.247 352.824,682.218C352.533,682.185 352.272,682.162 352.039,682.149C351.807,682.141 351.487,682.137 351.08,682.137C350.654,682.137 350.218,682.147 349.773,682.168C349.328,682.189 348.94,682.209 348.611,682.23C348.282,682.251 348.069,682.261 347.972,682.261ZM373.975,682.323C373.762,682.323 373.582,682.288 373.434,682.218C373.291,682.143 373.219,682.013 373.219,681.826C373.219,681.619 373.281,681.468 373.405,681.373C373.533,681.282 373.704,681.205 373.917,681.143C374.478,680.977 374.966,680.719 375.381,680.366C375.799,680.014 376.115,679.58 376.328,679.062C376.812,677.902 377.268,676.757 377.694,675.626C378.12,674.5 378.536,673.382 378.943,672.272C379.35,671.166 379.756,670.037 380.163,668.886C380.57,667.739 380.977,666.575 381.383,665.395C381.674,664.546 381.858,663.929 381.935,663.543C382.013,663.162 382.071,662.941 382.11,662.879C382.458,662.775 382.788,662.682 383.098,662.599C383.408,662.516 383.737,662.402 384.085,662.257C384.434,662.112 384.729,661.926 384.969,661.698C385.213,661.47 385.393,661.294 385.509,661.17C385.587,661.108 385.664,661.071 385.742,661.058C385.819,661.05 385.896,661.118 385.974,661.263C386.032,661.388 386.084,661.518 386.131,661.655C386.181,661.787 386.226,661.936 386.264,662.102C386.671,663.489 387.088,664.902 387.514,666.339C387.94,667.78 388.37,669.215 388.804,670.644C389.242,672.073 389.673,673.485 390.1,674.881C390.526,676.281 390.942,677.643 391.349,678.969C391.465,679.383 391.643,679.735 391.883,680.025C392.128,680.315 392.405,680.543 392.714,680.708C393.024,680.874 393.373,681.019 393.76,681.143C393.973,681.205 394.142,681.282 394.266,681.373C394.394,681.468 394.458,681.609 394.458,681.795C394.458,681.94 394.4,682.054 394.283,682.137C394.167,682.22 394.032,682.261 393.877,682.261C393.489,682.261 393.009,682.247 392.436,682.218C391.866,682.185 391.291,682.158 390.71,682.137C390.129,682.116 389.615,682.106 389.17,682.106C388.802,682.106 388.351,682.116 387.816,682.137C387.285,682.158 386.749,682.178 386.206,682.199C385.664,682.22 385.199,682.23 384.812,682.23C384.637,682.23 384.486,682.193 384.359,682.118C384.235,682.048 384.173,681.94 384.173,681.795C384.173,681.609 384.24,681.464 384.376,681.36C384.512,681.257 384.676,681.184 384.87,681.143C385.587,680.977 386.11,680.76 386.439,680.491C386.768,680.222 386.875,679.818 386.758,679.279C386.681,678.886 386.584,678.472 386.468,678.037C386.352,677.602 386.239,677.161 386.131,676.714C386.026,676.27 385.916,675.842 385.8,675.428C385.761,675.262 385.712,675.138 385.654,675.055C385.596,674.972 385.48,674.931 385.306,674.931L380.163,674.931C380.028,674.931 379.921,674.972 379.844,675.055C379.766,675.138 379.708,675.272 379.669,675.459C379.592,675.749 379.505,676.039 379.408,676.328C379.311,676.618 379.218,676.908 379.129,677.198C379.044,677.488 378.962,677.778 378.885,678.068C378.807,678.358 378.73,678.637 378.652,678.907C378.517,679.528 378.575,680.004 378.827,680.335C379.079,680.667 379.621,680.936 380.454,681.143C380.919,681.247 381.151,681.464 381.151,681.795C381.151,681.94 381.097,682.048 380.988,682.118C380.884,682.193 380.715,682.23 380.483,682.23C379.921,682.23 379.398,682.216 378.914,682.187C378.43,682.154 377.897,682.137 377.316,682.137C376.735,682.137 376.183,682.168 375.66,682.23C375.137,682.292 374.575,682.323 373.975,682.323ZM380.977,673.253L384.754,673.253C385.044,673.253 385.19,673.181 385.19,673.036C385.19,672.974 385.184,672.922 385.172,672.881C385.164,672.839 385.151,672.787 385.131,672.725L383.185,665.705C383.127,665.477 383.069,665.364 383.01,665.364C382.972,665.364 382.904,665.477 382.807,665.705L380.512,672.725C380.473,672.808 380.454,672.891 380.454,672.974C380.454,673.077 380.506,673.15 380.611,673.191C380.719,673.233 380.841,673.253 380.977,673.253ZM414.005,682.758C413.753,682.758 413.346,682.599 412.785,682.28C412.223,681.957 411.642,681.392 411.042,680.584C410.577,680.066 410.092,679.507 409.589,678.907C409.085,678.306 408.553,677.685 407.991,677.043C407.429,676.401 406.864,675.749 406.294,675.086C405.721,674.423 405.153,673.765 404.592,673.11C404.03,672.46 403.468,671.814 402.906,671.172C402.345,670.53 401.812,669.909 401.309,669.308C400.805,668.708 400.321,668.149 399.856,667.631C399.817,667.548 399.755,667.47 399.67,667.395C399.581,667.325 399.517,667.289 399.478,667.289C399.401,667.289 399.348,667.362 399.321,667.507C399.29,667.652 399.275,667.776 399.275,667.88C399.255,668.832 399.255,669.95 399.275,671.234C399.294,672.518 399.319,673.817 399.35,675.129C399.377,676.446 399.391,677.643 399.391,678.72C399.391,679.383 399.585,679.905 399.972,680.286C400.359,680.671 400.931,680.967 401.686,681.174C401.899,681.216 402.089,681.282 402.256,681.373C402.418,681.468 402.5,681.609 402.5,681.795C402.5,681.94 402.422,682.054 402.267,682.137C402.112,682.22 401.948,682.261 401.773,682.261C401.25,682.261 400.824,682.247 400.495,682.218C400.166,682.185 399.862,682.162 399.583,682.149C399.3,682.141 398.955,682.137 398.548,682.137C398.122,682.137 397.721,682.147 397.346,682.168C396.966,682.189 396.646,682.209 396.387,682.23C396.123,682.251 395.943,682.261 395.846,682.261C395.711,682.261 395.562,682.224 395.399,682.149C395.232,682.079 395.149,681.971 395.149,681.826C395.149,681.64 395.227,681.505 395.382,681.423C395.537,681.34 395.711,681.257 395.905,681.174C396.369,680.988 396.724,680.677 396.968,680.242C397.208,679.807 397.348,679.269 397.386,678.627C397.464,677.861 397.547,676.846 397.636,675.583C397.721,674.32 397.803,672.895 397.88,671.309C397.958,669.727 397.996,668.087 397.996,666.389C397.996,665.312 397.741,664.535 397.229,664.059C396.714,663.583 396.089,663.2 395.353,662.91C395.198,662.868 395.023,662.79 394.83,662.674C394.636,662.562 394.539,662.413 394.539,662.226C394.539,662.04 394.616,661.909 394.771,661.835C394.926,661.765 395.101,661.729 395.294,661.729C395.643,661.729 396.036,661.74 396.474,661.76C396.908,661.781 397.367,661.798 397.851,661.81C398.335,661.818 398.839,661.833 399.362,661.854C399.885,661.874 400.408,661.885 400.931,661.885C401.086,661.885 401.208,661.916 401.297,661.978C401.382,662.04 401.463,662.123 401.541,662.226C401.967,662.744 402.428,663.303 402.924,663.904C403.416,664.504 403.933,665.13 404.475,665.78C405.018,666.434 405.57,667.097 406.131,667.768C406.693,668.443 407.251,669.122 407.805,669.805C408.355,670.489 408.897,671.151 409.432,671.793C409.963,672.435 410.48,673.057 410.983,673.657C411.487,674.258 411.952,674.817 412.378,675.334C412.436,675.417 412.51,675.504 412.599,675.595C412.684,675.691 412.765,675.738 412.843,675.738C412.998,675.738 413.075,675.583 413.075,675.272C413.075,674.63 413.081,673.885 413.093,673.036C413.1,672.187 413.104,671.286 413.104,670.333C413.104,669.381 413.1,668.439 413.093,667.507C413.081,666.575 413.056,665.716 413.017,664.929C412.998,664.37 412.8,663.949 412.424,663.668C412.045,663.39 411.526,663.158 410.867,662.972C410.654,662.93 410.47,662.858 410.315,662.754C410.16,662.651 410.083,662.506 410.083,662.319C410.083,662.175 410.16,662.065 410.315,661.99C410.47,661.92 410.635,661.885 410.809,661.885C411.255,661.885 411.632,661.889 411.942,661.897C412.252,661.909 412.533,661.916 412.785,661.916L413.627,661.916C414.015,661.916 414.344,661.909 414.615,661.897C414.886,661.889 415.183,661.874 415.504,661.854C415.822,661.833 416.232,661.823 416.736,661.823C416.968,661.823 417.149,661.864 417.276,661.947C417.4,662.03 417.462,662.143 417.462,662.288C417.462,662.599 417.211,662.806 416.707,662.91C416.029,663.055 415.545,663.262 415.254,663.531C414.964,663.8 414.809,664.235 414.789,664.836C414.789,665.581 414.786,666.378 414.778,667.227C414.766,668.076 414.741,668.946 414.702,669.836C414.664,670.727 414.631,671.611 414.604,672.489C414.573,673.371 414.547,674.216 414.528,675.024C414.509,675.831 414.499,676.577 414.499,677.26C414.499,677.737 414.528,678.258 414.586,678.826C414.644,679.397 414.698,679.915 414.749,680.379C414.795,680.847 414.819,681.174 414.819,681.36C414.819,681.878 414.747,682.241 414.604,682.448C414.456,682.655 414.257,682.758 414.005,682.758ZM418.392,682.323C418.179,682.323 418.001,682.288 417.858,682.218C417.71,682.143 417.637,682.013 417.637,681.826C417.637,681.619 417.701,681.468 417.828,681.373C417.952,681.282 418.121,681.205 418.334,681.143C418.896,680.977 419.386,680.719 419.804,680.366C420.219,680.014 420.532,679.58 420.745,679.062C421.23,677.902 421.685,676.757 422.111,675.626C422.537,674.5 422.954,673.382 423.36,672.272C423.767,671.166 424.174,670.037 424.581,668.886C424.987,667.739 425.394,666.575 425.801,665.395C426.091,664.546 426.275,663.929 426.353,663.543C426.43,663.162 426.488,662.941 426.527,662.879C426.876,662.775 427.205,662.682 427.515,662.599C427.825,662.516 428.154,662.402 428.503,662.257C428.851,662.112 429.148,661.926 429.392,661.698C429.632,661.47 429.81,661.294 429.926,661.17C430.004,661.108 430.081,661.071 430.159,661.058C430.236,661.05 430.314,661.118 430.391,661.263C430.449,661.388 430.504,661.518 430.554,661.655C430.601,661.787 430.643,661.936 430.682,662.102C431.089,663.489 431.505,664.902 431.931,666.339C432.357,667.78 432.789,669.215 433.227,670.644C433.661,672.073 434.091,673.485 434.517,674.881C434.943,676.281 435.36,677.643 435.766,678.969C435.882,679.383 436.063,679.735 436.307,680.025C436.547,680.315 436.822,680.543 437.132,680.708C437.442,680.874 437.79,681.019 438.178,681.143C438.391,681.205 438.561,681.282 438.689,681.373C438.813,681.468 438.875,681.609 438.875,681.795C438.875,681.94 438.817,682.054 438.701,682.137C438.584,682.22 438.449,682.261 438.294,682.261C437.907,682.261 437.428,682.247 436.859,682.218C436.285,682.185 435.708,682.158 435.127,682.137C434.546,682.116 434.033,682.106 433.587,682.106C433.219,682.106 432.77,682.116 432.239,682.137C431.705,682.158 431.166,682.178 430.624,682.199C430.081,682.22 429.617,682.23 429.229,682.23C429.055,682.23 428.906,682.193 428.782,682.118C428.654,682.048 428.59,681.94 428.59,681.795C428.59,681.609 428.658,681.464 428.793,681.36C428.929,681.257 429.094,681.184 429.287,681.143C430.004,680.977 430.527,680.76 430.856,680.491C431.185,680.222 431.292,679.818 431.176,679.279C431.098,678.886 431.001,678.472 430.885,678.037C430.769,677.602 430.659,677.161 430.554,676.714C430.446,676.27 430.333,675.842 430.217,675.428C430.178,675.262 430.13,675.138 430.072,675.055C430.014,674.972 429.897,674.931 429.723,674.931L424.581,674.931C424.445,674.931 424.338,674.972 424.261,675.055C424.184,675.138 424.125,675.272 424.087,675.459C424.009,675.749 423.922,676.039 423.825,676.328C423.728,676.618 423.637,676.908 423.552,677.198C423.463,677.488 423.38,677.778 423.302,678.068C423.225,678.358 423.147,678.637 423.07,678.907C422.934,679.528 422.992,680.004 423.244,680.335C423.496,680.667 424.038,680.936 424.871,681.143C425.336,681.247 425.568,681.464 425.568,681.795C425.568,681.94 425.516,682.048 425.412,682.118C425.303,682.193 425.133,682.23 424.9,682.23C424.338,682.23 423.815,682.216 423.331,682.187C422.847,682.154 422.314,682.137 421.733,682.137C421.152,682.137 420.6,682.168 420.077,682.23C419.554,682.292 418.993,682.323 418.392,682.323ZM425.394,673.253L429.171,673.253C429.462,673.253 429.607,673.181 429.607,673.036C429.607,672.974 429.603,672.922 429.595,672.881C429.584,672.839 429.568,672.787 429.549,672.725L427.602,665.705C427.544,665.477 427.486,665.364 427.428,665.364C427.389,665.364 427.321,665.477 427.224,665.705L424.929,672.725C424.89,672.808 424.871,672.891 424.871,672.974C424.871,673.077 424.925,673.15 425.034,673.191C425.138,673.233 425.258,673.253 425.394,673.253ZM449.683,682.603C448.288,682.603 446.975,682.359 445.743,681.87C444.515,681.385 443.431,680.687 442.489,679.776C441.552,678.865 440.822,677.788 440.299,676.546C439.776,675.303 439.514,673.926 439.514,672.415C439.514,670.986 439.77,669.619 440.281,668.314C440.796,667.01 441.532,665.85 442.489,664.836C443.45,663.821 444.608,663.017 445.964,662.425C447.32,661.837 448.821,661.543 450.467,661.543C450.874,661.543 451.343,661.574 451.874,661.636C452.408,661.698 452.956,661.781 453.518,661.885C454.08,661.988 454.607,662.106 455.099,662.239C455.594,662.375 455.997,662.516 456.307,662.661C456.482,662.723 456.617,662.81 456.714,662.922C456.811,663.038 456.869,663.2 456.888,663.407C456.985,664.131 457.067,664.815 457.132,665.457C457.202,666.099 457.237,666.637 457.237,667.072C457.237,667.279 457.192,667.434 457.103,667.538C457.018,667.641 456.898,667.693 456.743,667.693C456.511,667.693 456.34,667.631 456.232,667.507C456.127,667.383 456.036,667.227 455.959,667.041C455.784,666.647 455.585,666.237 455.36,665.811C455.139,665.388 454.874,665.001 454.564,664.649C454.332,664.401 454.055,664.163 453.733,663.935C453.415,663.707 453.024,663.521 452.559,663.376C452.094,663.231 451.533,663.158 450.874,663.158C449.828,663.158 448.899,663.386 448.085,663.842C447.272,664.297 446.588,664.922 446.034,665.718C445.484,666.517 445.067,667.418 444.785,668.42C444.506,669.426 444.366,670.489 444.366,671.607C444.366,672.994 444.492,674.262 444.744,675.409C444.996,676.56 445.364,677.55 445.848,678.379C446.332,679.207 446.933,679.843 447.649,680.286C448.366,680.733 449.199,680.957 450.148,680.957C450.651,680.957 451.062,680.863 451.38,680.677C451.701,680.491 451.959,680.325 452.153,680.18C452.346,680.014 452.505,679.749 452.629,679.385C452.757,679.025 452.821,678.617 452.821,678.161C452.84,677.975 452.85,677.716 452.85,677.385C452.85,677.053 452.854,676.722 452.861,676.391C452.873,676.059 452.879,675.8 452.879,675.614C452.879,675.386 452.834,675.173 452.745,674.974C452.66,674.779 452.492,674.63 452.24,674.527C452.065,674.403 451.866,674.299 451.641,674.216C451.42,674.133 451.198,674.065 450.973,674.011C450.752,673.962 450.555,673.916 450.38,673.875C450.225,673.854 450.07,673.781 449.915,673.657C449.76,673.533 449.683,673.378 449.683,673.191C449.683,673.046 449.751,672.932 449.886,672.849C450.022,672.767 450.158,672.725 450.293,672.725C450.739,672.725 451.227,672.736 451.757,672.756C452.292,672.777 452.821,672.802 453.344,672.831C453.867,672.864 454.332,672.881 454.738,672.881C455.3,672.881 455.895,672.86 456.522,672.818C457.154,672.777 457.76,672.756 458.341,672.756C458.477,672.756 458.593,672.792 458.69,672.862C458.787,672.936 458.835,673.057 458.835,673.222C458.835,673.429 458.781,673.578 458.672,673.67C458.568,673.765 458.428,673.833 458.254,673.875C457.712,674.019 457.344,674.206 457.15,674.434C456.956,674.661 456.821,674.982 456.743,675.397C456.666,675.852 456.611,676.252 456.58,676.596C456.553,676.935 456.54,677.312 456.54,677.726L456.54,678.72C456.54,678.824 456.578,678.927 456.656,679.031C456.733,679.134 456.821,679.238 456.917,679.341C456.995,679.445 457.063,679.549 457.121,679.652C457.179,679.756 457.208,679.869 457.208,679.994C457.208,680.118 457.169,680.246 457.092,680.379C457.014,680.516 456.869,680.605 456.656,680.646C456.501,680.667 456.23,680.774 455.842,680.969C455.455,681.168 454.971,681.396 454.39,681.652C453.809,681.913 453.121,682.137 452.327,682.323C451.533,682.51 450.651,682.603 449.683,682.603ZM460.752,682.323C460.559,682.323 460.408,682.278 460.299,682.187C460.195,682.091 460.142,681.982 460.142,681.857C460.142,681.547 460.355,681.329 460.782,681.205C461.44,681.019 461.909,680.801 462.188,680.553C462.471,680.304 462.612,679.849 462.612,679.186L462.612,665.053C462.612,664.39 462.486,663.914 462.234,663.624C461.982,663.334 461.508,663.106 460.811,662.941C460.559,662.879 460.384,662.79 460.288,662.674C460.191,662.562 460.142,662.433 460.142,662.288C460.142,662.164 460.2,662.057 460.317,661.965C460.433,661.87 460.588,661.823 460.782,661.823C461.266,661.823 461.76,661.833 462.263,661.854C462.767,661.874 463.261,661.899 463.745,661.928C464.229,661.961 464.694,661.978 465.14,661.978C466.147,661.978 467.222,661.967 468.365,661.947C469.507,661.926 470.524,661.905 471.415,661.885C472.035,661.885 472.548,661.847 472.955,661.773C473.362,661.702 473.604,661.667 473.681,661.667C473.817,661.667 473.966,661.715 474.129,661.81C474.295,661.901 474.388,662.05 474.408,662.257C474.485,663.003 474.582,663.728 474.698,664.432C474.814,665.136 474.873,665.757 474.873,666.295C474.873,666.482 474.834,666.627 474.756,666.73C474.679,666.834 474.592,666.886 474.495,666.886C474.398,666.886 474.295,666.844 474.187,666.761C474.082,666.679 474.001,666.554 473.943,666.389C473.749,665.871 473.575,665.426 473.42,665.053C473.265,664.68 473.091,664.38 472.897,664.152C472.665,663.924 472.384,663.707 472.054,663.5C471.725,663.293 471.309,663.189 470.805,663.189L468.626,663.189C468.2,663.189 467.832,663.307 467.522,663.543C467.212,663.784 467.057,664.121 467.057,664.556L467.057,670.427C467.057,670.675 467.125,670.862 467.261,670.986C467.396,671.11 467.57,671.172 467.783,671.172L470.34,671.172C470.844,671.172 471.206,670.992 471.427,670.632C471.652,670.267 471.851,669.826 472.025,669.308C472.161,668.915 472.355,668.718 472.606,668.718C472.703,668.718 472.79,668.774 472.868,668.886C472.945,669.002 472.974,669.174 472.955,669.402C472.936,669.65 472.916,669.919 472.897,670.209C472.878,670.499 472.862,670.789 472.85,671.079C472.843,671.369 472.839,671.648 472.839,671.918C472.839,672.166 472.843,672.435 472.85,672.725C472.862,673.015 472.872,673.305 472.88,673.595C472.891,673.885 472.907,674.164 472.926,674.434C472.965,674.724 472.955,674.935 472.897,675.067C472.839,675.204 472.752,675.272 472.635,675.272C472.326,675.272 472.103,675.003 471.967,674.465C471.793,673.843 471.599,673.367 471.386,673.036C471.173,672.705 470.873,672.539 470.485,672.539L467.783,672.539C467.551,672.539 467.371,672.595 467.243,672.707C467.119,672.823 467.057,673.005 467.057,673.253L467.057,679.155C467.057,679.776 467.183,680.211 467.435,680.46C467.687,680.708 468.074,680.832 468.597,680.832L471.096,680.832C471.522,680.832 471.928,680.781 472.316,680.677C472.703,680.574 473.033,680.398 473.304,680.149C473.633,679.859 473.933,679.497 474.204,679.062C474.476,678.627 474.727,678.161 474.96,677.664C475.037,677.519 475.119,677.42 475.204,677.366C475.293,677.316 475.396,677.291 475.512,677.291C475.609,677.291 475.68,677.353 475.727,677.478C475.777,677.602 475.802,677.737 475.802,677.882C475.802,678.234 475.754,678.627 475.657,679.062C475.56,679.497 475.438,679.956 475.291,680.441C475.148,680.93 475.008,681.412 474.873,681.889C474.834,682.033 474.751,682.137 474.623,682.199C474.499,682.261 474.369,682.292 474.233,682.292C473.982,682.292 473.511,682.288 472.821,682.28C472.136,682.267 471.328,682.251 470.398,682.23C469.469,682.209 468.51,682.195 467.522,682.187C466.534,682.174 465.614,682.168 464.762,682.168C464.375,682.168 463.948,682.178 463.484,682.199C463.019,682.22 462.548,682.247 462.072,682.28C461.599,682.309 461.159,682.323 460.752,682.323ZM477.54,682.261C477.307,682.261 477.133,682.224 477.017,682.149C476.901,682.079 476.842,681.971 476.842,681.826C476.842,681.64 476.926,681.52 477.092,681.466C477.255,681.416 477.443,681.35 477.656,681.267C478.101,681.102 478.495,680.812 478.836,680.398C479.173,679.983 479.38,679.455 479.457,678.813C479.573,677.861 479.696,676.685 479.823,675.285C479.947,673.889 480.077,672.394 480.213,670.799C480.348,669.205 480.464,667.631 480.561,666.078C480.581,665.954 480.59,665.798 480.59,665.612L480.59,665.022C480.59,664.649 480.538,664.353 480.433,664.134C480.325,663.918 480.145,663.738 479.893,663.593C479.661,663.427 479.409,663.287 479.138,663.171C478.867,663.059 478.576,662.961 478.266,662.879C478.034,662.816 477.85,662.734 477.714,662.63C477.578,662.527 477.511,662.392 477.511,662.226C477.511,662.04 477.588,661.916 477.743,661.854C477.898,661.791 478.082,661.76 478.295,661.76C478.586,661.76 478.944,661.771 479.37,661.791C479.796,661.812 480.267,661.827 480.782,661.835C481.293,661.847 481.816,661.864 482.351,661.885C482.882,661.905 483.37,661.916 483.815,661.916C483.97,661.916 484.116,661.972 484.251,662.083C484.387,662.199 484.474,662.33 484.513,662.475C484.648,662.868 484.774,663.245 484.89,663.605C485.007,663.97 485.132,664.349 485.268,664.742L489.539,675.645C489.578,675.728 489.632,675.773 489.702,675.782C489.767,675.794 489.82,675.749 489.859,675.645L494.013,665.333C494.149,664.608 494.261,664.018 494.35,663.562C494.435,663.106 494.517,662.744 494.594,662.475C494.672,662.206 494.827,662.071 495.059,662.071L496.308,662.071C497.122,662.03 497.97,661.961 498.854,661.866C499.733,661.775 500.424,661.729 500.928,661.729C501.122,661.729 501.292,661.765 501.439,661.835C501.583,661.909 501.654,662.03 501.654,662.195C501.654,662.382 501.592,662.516 501.468,662.599C501.341,662.682 501.18,662.754 500.986,662.816C500.87,662.858 500.734,662.914 500.579,662.984C500.424,663.059 500.289,663.127 500.173,663.189C499.669,663.438 499.297,663.721 499.057,664.04C498.813,664.363 498.71,664.877 498.749,665.581C498.788,667.072 498.836,668.377 498.894,669.495C498.952,670.613 499.007,671.648 499.057,672.601C499.103,673.554 499.162,674.541 499.231,675.564C499.297,676.591 499.369,677.788 499.446,679.155C499.485,679.693 499.694,680.122 500.074,680.441C500.45,680.764 500.947,681.008 501.567,681.174C501.761,681.236 501.926,681.309 502.061,681.392C502.197,681.474 502.264,681.609 502.264,681.795C502.264,681.94 502.206,682.054 502.09,682.137C501.974,682.22 501.829,682.261 501.654,682.261C501.228,682.261 500.74,682.247 500.19,682.218C499.636,682.185 499.094,682.158 498.563,682.137C498.028,682.116 497.567,682.106 497.18,682.106C496.793,682.106 496.363,682.116 495.89,682.137C495.414,682.158 494.933,682.185 494.449,682.218C493.965,682.247 493.5,682.261 493.054,682.261C492.88,682.261 492.725,682.224 492.59,682.149C492.454,682.079 492.386,681.971 492.386,681.826C492.386,681.64 492.454,681.495 492.59,681.392C492.725,681.288 492.89,681.216 493.083,681.174C493.8,681.029 494.294,680.816 494.565,680.534C494.836,680.257 494.962,679.797 494.943,679.155C494.885,677.871 494.836,676.591 494.798,675.316C494.759,674.044 494.726,672.794 494.699,671.564C494.668,670.329 494.623,669.132 494.565,667.973C494.565,667.828 494.532,667.759 494.466,667.768C494.397,667.78 494.333,667.859 494.275,668.004L488.725,682.106C488.629,682.396 488.483,682.52 488.29,682.479C488.096,682.437 487.96,682.334 487.883,682.168C486.934,679.766 485.942,677.395 484.908,675.055C483.87,672.715 482.915,670.396 482.043,668.097C481.985,667.911 481.894,667.842 481.77,667.892C481.642,667.946 481.569,668.087 481.549,668.314C481.491,669.35 481.443,670.485 481.404,671.719C481.365,672.949 481.346,674.189 481.346,675.44L481.346,678.938C481.346,679.517 481.52,679.988 481.869,680.348C482.217,680.712 482.769,680.988 483.525,681.174C483.718,681.216 483.902,681.282 484.077,681.373C484.251,681.468 484.338,681.609 484.338,681.795C484.338,681.94 484.261,682.054 484.106,682.137C483.951,682.22 483.786,682.261 483.612,682.261C483.089,682.261 482.682,682.247 482.392,682.218C482.101,682.185 481.84,682.162 481.607,682.149C481.375,682.141 481.055,682.137 480.648,682.137C480.222,682.137 479.787,682.147 479.341,682.168C478.896,682.189 478.508,682.209 478.179,682.23C477.85,682.251 477.637,682.261 477.54,682.261ZM504.095,682.323C503.901,682.323 503.75,682.278 503.642,682.187C503.537,682.091 503.485,681.982 503.485,681.857C503.485,681.547 503.698,681.329 504.124,681.205C504.782,681.019 505.251,680.801 505.53,680.553C505.813,680.304 505.954,679.849 505.954,679.186L505.954,665.053C505.954,664.39 505.828,663.914 505.577,663.624C505.325,663.334 504.85,663.106 504.153,662.941C503.901,662.879 503.727,662.79 503.63,662.674C503.533,662.562 503.485,662.433 503.485,662.288C503.485,662.164 503.543,662.057 503.659,661.965C503.775,661.87 503.93,661.823 504.124,661.823C504.608,661.823 505.102,661.833 505.606,661.854C506.109,661.874 506.603,661.899 507.087,661.928C507.572,661.961 508.036,661.978 508.482,661.978C509.489,661.978 510.564,661.967 511.707,661.947C512.85,661.926 513.867,661.905 514.758,661.885C515.377,661.885 515.891,661.847 516.297,661.773C516.704,661.702 516.946,661.667 517.024,661.667C517.159,661.667 517.308,661.715 517.471,661.81C517.638,661.901 517.731,662.05 517.75,662.257C517.828,663.003 517.924,663.728 518.041,664.432C518.157,665.136 518.215,665.757 518.215,666.295C518.215,666.482 518.176,666.627 518.099,666.73C518.021,666.834 517.934,666.886 517.837,666.886C517.74,666.886 517.638,666.844 517.529,666.761C517.425,666.679 517.343,666.554 517.285,666.389C517.092,665.871 516.917,665.426 516.762,665.053C516.607,664.68 516.433,664.38 516.239,664.152C516.007,663.924 515.726,663.707 515.397,663.5C515.067,663.293 514.651,663.189 514.147,663.189L511.968,663.189C511.542,663.189 511.174,663.307 510.864,663.543C510.554,663.784 510.4,664.121 510.4,664.556L510.4,670.427C510.4,670.675 510.467,670.862 510.603,670.986C510.738,671.11 510.913,671.172 511.126,671.172L513.683,671.172C514.186,671.172 514.548,670.992 514.769,670.632C514.994,670.267 515.193,669.826 515.368,669.308C515.503,668.915 515.697,668.718 515.949,668.718C516.046,668.718 516.133,668.774 516.21,668.886C516.288,669.002 516.317,669.174 516.297,669.402C516.278,669.65 516.259,669.919 516.239,670.209C516.22,670.499 516.204,670.789 516.193,671.079C516.185,671.369 516.181,671.648 516.181,671.918C516.181,672.166 516.185,672.435 516.193,672.725C516.204,673.015 516.214,673.305 516.222,673.595C516.234,673.885 516.249,674.164 516.268,674.434C516.307,674.724 516.297,674.935 516.239,675.067C516.181,675.204 516.094,675.272 515.978,675.272C515.668,675.272 515.445,675.003 515.31,674.465C515.135,673.843 514.942,673.367 514.729,673.036C514.515,672.705 514.215,672.539 513.828,672.539L511.126,672.539C510.893,672.539 510.713,672.595 510.585,672.707C510.461,672.823 510.4,673.005 510.4,673.253L510.4,679.155C510.4,679.776 510.525,680.211 510.777,680.46C511.029,680.708 511.416,680.832 511.939,680.832L514.438,680.832C514.864,680.832 515.271,680.781 515.658,680.677C516.046,680.574 516.375,680.398 516.646,680.149C516.975,679.859 517.276,679.497 517.547,679.062C517.818,678.627 518.07,678.161 518.302,677.664C518.38,677.519 518.461,677.42 518.546,677.366C518.635,677.316 518.738,677.291 518.854,677.291C518.951,677.291 519.023,677.353 519.069,677.478C519.12,677.602 519.145,677.737 519.145,677.882C519.145,678.234 519.096,678.627 518.999,679.062C518.903,679.497 518.781,679.956 518.633,680.441C518.49,680.93 518.351,681.412 518.215,681.889C518.176,682.033 518.093,682.137 517.965,682.199C517.841,682.261 517.711,682.292 517.576,682.292C517.324,682.292 516.853,682.288 516.164,682.28C515.478,682.267 514.67,682.251 513.741,682.23C512.811,682.209 511.852,682.195 510.864,682.187C509.877,682.174 508.957,682.168 508.104,682.168C507.717,682.168 507.291,682.178 506.826,682.199C506.361,682.22 505.89,682.247 505.414,682.28C504.941,682.309 504.502,682.323 504.095,682.323ZM539.366,682.758C539.114,682.758 538.708,682.599 538.146,682.28C537.584,681.957 537.003,681.392 536.403,680.584C535.938,680.066 535.454,679.507 534.95,678.907C534.446,678.306 533.914,677.685 533.352,677.043C532.79,676.401 532.223,675.749 531.649,675.086C531.08,674.423 530.514,673.765 529.953,673.11C529.391,672.46 528.829,671.814 528.268,671.172C527.706,670.53 527.173,669.909 526.67,669.308C526.166,668.708 525.682,668.149 525.217,667.631C525.178,667.548 525.114,667.47 525.025,667.395C524.94,667.325 524.878,667.289 524.839,667.289C524.762,667.289 524.708,667.362 524.677,667.507C524.649,667.652 524.636,667.776 524.636,667.88C524.616,668.832 524.616,669.95 524.636,671.234C524.655,672.518 524.678,673.817 524.706,675.129C524.737,676.446 524.752,677.643 524.752,678.72C524.752,679.383 524.946,679.905 525.333,680.286C525.721,680.671 526.292,680.967 527.047,681.174C527.26,681.216 527.448,681.282 527.611,681.373C527.778,681.468 527.861,681.609 527.861,681.795C527.861,681.94 527.783,682.054 527.628,682.137C527.473,682.22 527.309,682.261 527.134,682.261C526.612,682.261 526.185,682.247 525.856,682.218C525.527,682.185 525.221,682.162 524.938,682.149C524.659,682.141 524.316,682.137 523.91,682.137C523.483,682.137 523.081,682.147 522.701,682.168C522.325,682.189 522.006,682.209 521.742,682.23C521.483,682.251 521.304,682.261 521.208,682.261C521.072,682.261 520.921,682.224 520.754,682.149C520.592,682.079 520.51,681.971 520.51,681.826C520.51,681.64 520.588,681.505 520.743,681.423C520.898,681.34 521.072,681.257 521.266,681.174C521.73,680.988 522.083,680.677 522.323,680.242C522.567,679.807 522.709,679.269 522.747,678.627C522.825,677.861 522.906,676.846 522.991,675.583C523.081,674.32 523.164,672.895 523.241,671.309C523.319,669.727 523.357,668.087 523.357,666.389C523.357,665.312 523.1,664.535 522.585,664.059C522.073,663.583 521.45,663.2 520.714,662.91C520.559,662.868 520.384,662.79 520.191,662.674C519.997,662.562 519.9,662.413 519.9,662.226C519.9,662.04 519.978,661.909 520.133,661.835C520.287,661.765 520.462,661.729 520.655,661.729C521.004,661.729 521.395,661.74 521.829,661.76C522.267,661.781 522.728,661.798 523.212,661.81C523.696,661.818 524.2,661.833 524.723,661.854C525.246,661.874 525.769,661.885 526.292,661.885C526.447,661.885 526.567,661.916 526.652,661.978C526.741,662.04 526.825,662.123 526.902,662.226C527.328,662.744 527.787,663.303 528.279,663.904C528.775,664.504 529.294,665.13 529.836,665.78C530.379,666.434 530.931,667.097 531.493,667.768C532.054,668.443 532.61,669.122 533.16,669.805C533.714,670.489 534.257,671.151 534.787,671.793C535.322,672.435 535.841,673.057 536.345,673.657C536.848,674.258 537.313,674.817 537.739,675.334C537.797,675.417 537.869,675.504 537.954,675.595C538.043,675.691 538.126,675.738 538.204,675.738C538.359,675.738 538.436,675.583 538.436,675.272C538.436,674.63 538.44,673.885 538.448,673.036C538.46,672.187 538.465,671.286 538.465,670.333C538.465,669.381 538.46,668.439 538.448,667.507C538.44,666.575 538.417,665.716 538.378,664.929C538.359,664.37 538.159,663.949 537.78,663.668C537.404,663.39 536.887,663.158 536.228,662.972C536.015,662.93 535.831,662.858 535.676,662.754C535.521,662.651 535.444,662.506 535.444,662.319C535.444,662.175 535.521,662.065 535.676,661.99C535.831,661.92 535.996,661.885 536.17,661.885C536.616,661.885 536.993,661.889 537.303,661.897C537.613,661.909 537.894,661.916 538.146,661.916L538.988,661.916C539.376,661.916 539.705,661.909 539.976,661.897C540.247,661.889 540.542,661.874 540.859,661.854C541.181,661.833 541.594,661.823 542.097,661.823C542.33,661.823 542.508,661.864 542.632,661.947C542.76,662.03 542.823,662.143 542.823,662.288C542.823,662.599 542.572,662.806 542.068,662.91C541.39,663.055 540.906,663.262 540.615,663.531C540.325,663.8 540.17,664.235 540.151,664.836C540.151,665.581 540.145,666.378 540.133,667.227C540.125,668.076 540.102,668.946 540.063,669.836C540.025,670.727 539.99,671.611 539.959,672.489C539.932,673.371 539.908,674.216 539.889,675.024C539.87,675.831 539.86,676.577 539.86,677.26C539.86,677.737 539.889,678.258 539.947,678.826C540.005,679.397 540.058,679.915 540.104,680.379C540.154,680.847 540.18,681.174 540.18,681.36C540.18,681.878 540.106,682.241 539.959,682.448C539.815,682.655 539.618,682.758 539.366,682.758ZM549.093,682.261C548.958,682.261 548.812,682.224 548.657,682.149C548.503,682.079 548.425,681.971 548.425,681.826C548.425,681.64 548.493,681.495 548.628,681.392C548.764,681.288 548.929,681.216 549.122,681.174C549.858,681.008 550.397,680.791 550.738,680.522C551.075,680.253 551.243,679.787 551.243,679.124L551.243,666.295C551.243,665.488 551.224,664.891 551.185,664.506C551.146,664.125 551.094,663.866 551.028,663.73C550.959,663.597 550.875,663.51 550.778,663.469C550.604,663.365 550.377,663.307 550.099,663.295C549.816,663.287 549.587,663.282 549.413,663.282L548.774,663.282C548.154,663.282 547.569,663.442 547.019,663.761C546.465,664.084 546.023,664.483 545.694,664.96C545.597,665.105 545.458,665.306 545.276,665.562C545.09,665.823 544.896,666.051 544.695,666.246C544.489,666.445 544.29,666.544 544.096,666.544C543.941,666.544 543.835,666.486 543.776,666.37C543.718,666.258 543.689,666.13 543.689,665.985C543.689,665.736 543.747,665.477 543.864,665.208C544.232,664.421 544.503,663.748 544.677,663.189C544.851,662.63 544.968,661.988 545.026,661.263C545.065,660.953 545.152,660.739 545.287,660.624C545.423,660.512 545.578,660.456 545.752,660.456C545.888,660.456 546.033,660.59 546.188,660.86C546.343,661.129 546.508,661.346 546.682,661.512C546.876,661.678 547.201,661.802 547.658,661.885C548.111,661.967 548.483,662.009 548.774,662.009L559.698,662.009C560.182,662.009 560.595,661.957 560.936,661.854C561.273,661.75 561.528,661.646 561.703,661.543C562.013,661.357 562.26,661.149 562.446,660.922C562.628,660.694 562.845,660.58 563.097,660.58C563.213,660.58 563.297,660.628 563.347,660.723C563.394,660.814 563.417,660.942 563.417,661.108C563.417,661.191 563.413,661.294 563.405,661.419C563.394,661.543 563.378,661.657 563.359,661.76C563.262,662.154 563.165,662.531 563.068,662.891C562.971,663.255 562.894,663.603 562.836,663.935C562.778,664.266 562.749,664.608 562.749,664.96L562.749,665.581C562.749,665.912 562.716,666.182 562.65,666.389C562.58,666.596 562.448,666.699 562.255,666.699C562.08,666.699 561.935,666.6 561.819,666.401C561.703,666.206 561.577,665.892 561.441,665.457C561.228,664.711 560.914,664.163 560.5,663.81C560.081,663.458 559.446,663.282 558.594,663.282L557.083,663.282C556.754,663.282 556.488,663.359 556.287,663.512C556.082,663.67 555.931,663.98 555.834,664.444C555.737,664.912 555.688,665.622 555.688,666.575L555.688,679.093C555.688,679.714 555.849,680.164 556.171,680.441C556.488,680.723 557.025,680.967 557.78,681.174C557.974,681.236 558.139,681.309 558.274,681.392C558.41,681.474 558.478,681.609 558.478,681.795C558.478,681.94 558.42,682.054 558.303,682.137C558.187,682.22 558.042,682.261 557.868,682.261C557.441,682.261 556.963,682.247 556.432,682.218C555.898,682.185 555.365,682.158 554.834,682.137C554.3,682.116 553.839,682.106 553.451,682.106C553.045,682.106 552.586,682.116 552.074,682.137C551.559,682.158 551.046,682.185 550.534,682.218C550.019,682.247 549.539,682.261 549.093,682.261ZM581.198,682.603C579.803,682.603 578.49,682.359 577.258,681.87C576.03,681.385 574.945,680.687 574.004,679.776C573.066,678.865 572.336,677.788 571.813,676.546C571.29,675.303 571.029,673.926 571.029,672.415C571.029,670.986 571.285,669.619 571.796,668.314C572.311,667.01 573.047,665.85 574.004,664.836C574.965,663.821 576.123,663.017 577.479,662.425C578.835,661.837 580.336,661.543 581.982,661.543C582.389,661.543 582.858,661.574 583.388,661.636C583.923,661.698 584.471,661.781 585.033,661.885C585.594,661.988 586.121,662.106 586.613,662.239C587.109,662.375 587.512,662.516 587.822,662.661C587.996,662.723 588.132,662.81 588.229,662.922C588.326,663.038 588.384,663.2 588.403,663.407C588.5,664.131 588.581,664.815 588.647,665.457C588.717,666.099 588.752,666.637 588.752,667.072C588.752,667.279 588.707,667.434 588.618,667.538C588.533,667.641 588.413,667.693 588.258,667.693C588.025,667.693 587.855,667.631 587.746,667.507C587.642,667.383 587.551,667.227 587.473,667.041C587.299,666.647 587.099,666.237 586.875,665.811C586.654,665.388 586.389,665.001 586.079,664.649C585.846,664.401 585.569,664.163 585.248,663.935C584.93,663.707 584.539,663.521 584.074,663.376C583.609,663.231 583.047,663.158 582.389,663.158C581.343,663.158 580.413,663.386 579.6,663.842C578.786,664.297 578.102,664.922 577.549,665.718C576.998,666.517 576.582,667.418 576.299,668.42C576.02,669.426 575.881,670.489 575.881,671.607C575.881,672.994 576.007,674.262 576.259,675.409C576.51,676.56 576.878,677.55 577.363,678.379C577.847,679.207 578.447,679.843 579.164,680.286C579.881,680.733 580.713,680.957 581.663,680.957C582.166,680.957 582.577,680.863 582.894,680.677C583.216,680.491 583.474,680.325 583.667,680.18C583.861,680.014 584.02,679.749 584.144,679.385C584.272,679.025 584.335,678.617 584.335,678.161C584.355,677.975 584.365,677.716 584.365,677.385C584.365,677.053 584.368,676.722 584.376,676.391C584.388,676.059 584.394,675.8 584.394,675.614C584.394,675.386 584.349,675.173 584.26,674.974C584.175,674.779 584.006,674.63 583.754,674.527C583.58,674.403 583.381,674.299 583.156,674.216C582.935,674.133 582.712,674.065 582.488,674.011C582.267,673.962 582.069,673.916 581.895,673.875C581.74,673.854 581.585,673.781 581.43,673.657C581.275,673.533 581.198,673.378 581.198,673.191C581.198,673.046 581.265,672.932 581.401,672.849C581.537,672.767 581.672,672.725 581.808,672.725C582.253,672.725 582.741,672.736 583.272,672.756C583.807,672.777 584.335,672.802 584.858,672.831C585.381,672.864 585.846,672.881 586.253,672.881C586.815,672.881 587.409,672.86 588.037,672.818C588.668,672.777 589.275,672.756 589.856,672.756C589.991,672.756 590.107,672.792 590.204,672.862C590.301,672.936 590.35,673.057 590.35,673.222C590.35,673.429 590.295,673.578 590.187,673.67C590.082,673.765 589.943,673.833 589.769,673.875C589.226,674.019 588.858,674.206 588.664,674.434C588.471,674.661 588.335,674.982 588.258,675.397C588.18,675.852 588.126,676.252 588.095,676.596C588.068,676.935 588.054,677.312 588.054,677.726L588.054,678.72C588.054,678.824 588.093,678.927 588.171,679.031C588.248,679.134 588.335,679.238 588.432,679.341C588.51,679.445 588.577,679.549 588.635,679.652C588.694,679.756 588.723,679.869 588.723,679.994C588.723,680.118 588.684,680.246 588.606,680.379C588.529,680.516 588.384,680.605 588.171,680.646C588.016,680.667 587.744,680.774 587.357,680.969C586.97,681.168 586.485,681.396 585.904,681.652C585.323,681.913 584.636,682.137 583.842,682.323C583.047,682.51 582.166,682.603 581.198,682.603ZM609.816,682.82C608.828,682.82 607.995,682.692 607.317,682.435C606.639,682.174 606.062,681.831 605.585,681.404C605.113,680.982 604.692,680.501 604.324,679.963C603.898,679.362 603.486,678.762 603.087,678.161C602.692,677.561 602.3,676.908 601.913,676.204C601.526,675.5 601.119,674.693 600.693,673.781C600.499,673.326 600.238,673.005 599.908,672.818C599.734,672.694 599.56,672.611 599.385,672.57C599.211,672.529 599.056,672.508 598.92,672.508C598.824,672.508 598.746,672.564 598.688,672.676C598.63,672.792 598.601,672.943 598.601,673.129L598.601,679.062C598.601,679.704 598.765,680.17 599.095,680.46C599.424,680.75 599.995,680.988 600.809,681.174C601.022,681.216 601.181,681.282 601.285,681.373C601.394,681.468 601.448,681.609 601.448,681.795C601.448,681.94 601.4,682.054 601.303,682.137C601.206,682.22 601.07,682.261 600.896,682.261C600.47,682.261 599.98,682.247 599.426,682.218C598.876,682.185 598.33,682.158 597.787,682.137C597.245,682.116 596.78,682.106 596.393,682.106C595.986,682.106 595.541,682.116 595.056,682.137C594.572,682.158 594.072,682.185 593.557,682.218C593.046,682.247 592.577,682.261 592.151,682.261C591.996,682.261 591.86,682.224 591.744,682.149C591.628,682.079 591.57,681.971 591.57,681.826C591.57,681.495 591.773,681.278 592.18,681.174C592.916,681.008 593.423,680.795 593.702,680.534C593.985,680.277 594.127,679.807 594.127,679.124L594.127,665.177C594.127,664.68 594.082,664.287 593.993,663.997C593.908,663.707 593.739,663.483 593.487,663.326C593.236,663.173 592.868,663.044 592.383,662.941C592.132,662.879 591.957,662.79 591.86,662.674C591.764,662.562 591.715,662.433 591.715,662.288C591.715,662.164 591.773,662.057 591.889,661.965C592.006,661.87 592.161,661.823 592.354,661.823C592.974,661.823 593.482,661.843 593.877,661.885C594.276,661.926 594.653,661.961 595.01,661.99C595.37,662.023 595.792,662.04 596.277,662.04C596.722,662.04 597.113,662.015 597.45,661.965C597.791,661.912 598.179,661.864 598.612,661.823C599.05,661.781 599.608,661.76 600.286,661.76C602.552,661.76 604.295,662.175 605.516,663.003C606.736,663.831 607.346,665.084 607.346,666.761C607.346,667.693 607.156,668.474 606.777,669.103C606.401,669.737 605.926,670.255 605.353,670.657C604.783,671.062 604.208,671.369 603.627,671.576C603.55,671.597 603.515,671.644 603.523,671.719C603.534,671.789 603.559,671.866 603.598,671.949C604.179,672.86 604.745,673.744 605.295,674.601C605.849,675.463 606.416,676.26 606.997,676.993C607.578,677.73 608.179,678.41 608.799,679.031C609.457,679.693 610.129,680.081 610.815,680.193C611.505,680.309 612.188,680.366 612.866,680.366C613.157,680.366 613.302,680.553 613.302,680.926C613.302,681.381 613.151,681.748 612.849,682.025C612.551,682.307 612.14,682.51 611.617,682.634C611.094,682.758 610.494,682.82 609.816,682.82ZM599.705,671.514C600.441,671.514 601.051,671.338 601.535,670.986C602.02,670.634 602.388,670.151 602.639,669.538C602.891,668.929 603.017,668.232 603.017,667.445C603.017,666.492 602.901,665.695 602.668,665.053C602.436,664.411 602.087,663.929 601.622,663.605C601.158,663.287 600.557,663.127 599.821,663.127C599.395,663.127 599.089,663.307 598.903,663.668C598.721,664.032 598.63,664.804 598.63,665.985C598.611,666.461 598.601,667.062 598.601,667.786L598.601,670.365C598.601,670.779 598.702,671.075 598.903,671.253C599.108,671.427 599.376,671.514 599.705,671.514ZM624.046,682.603C622.71,682.603 621.437,682.359 620.228,681.87C619.016,681.385 617.941,680.692 617.004,679.789C616.062,678.89 615.326,677.813 614.795,676.558C614.261,675.308 613.994,673.916 613.994,672.384C613.994,670.975 614.212,669.623 614.65,668.327C615.084,667.035 615.737,665.881 616.608,664.867C617.48,663.852 618.561,663.044 619.851,662.444C621.137,661.843 622.622,661.543 624.308,661.543C625.663,661.543 626.948,661.787 628.16,662.276C629.369,662.761 630.438,663.452 631.368,664.351C632.297,665.254 633.033,666.331 633.576,667.581C634.118,668.836 634.389,670.23 634.389,671.762C634.389,673.15 634.167,674.496 633.721,675.8C633.276,677.105 632.617,678.265 631.745,679.279C630.874,680.294 629.795,681.102 628.509,681.702C627.219,682.303 625.731,682.603 624.046,682.603ZM624.569,681.174C625.673,681.174 626.599,680.843 627.347,680.18C628.09,679.517 628.646,678.596 629.014,677.416C629.382,676.235 629.566,674.879 629.566,673.346C629.566,672.083 629.456,670.835 629.235,669.6C629.01,668.37 628.662,667.258 628.189,666.264C627.713,665.27 627.106,664.477 626.37,663.885C625.634,663.297 624.763,663.003 623.756,663.003C622.671,663.003 621.757,663.334 621.013,663.997C620.265,664.659 619.707,665.571 619.339,666.73C618.971,667.89 618.787,669.236 618.787,670.768C618.787,672.052 618.904,673.309 619.136,674.539C619.368,675.773 619.717,676.888 620.182,677.882C620.647,678.876 621.243,679.673 621.972,680.273C622.696,680.874 623.562,681.174 624.569,681.174ZM646.069,682.603C644.248,682.603 642.728,682.255 641.507,681.559C640.287,680.868 639.373,679.901 638.765,678.658C638.153,677.416 637.847,675.966 637.847,674.309L637.847,665.457C637.847,664.877 637.721,664.349 637.469,663.873C637.217,663.396 636.849,663.096 636.365,662.972C635.823,662.806 635.551,662.578 635.551,662.288C635.551,662.143 635.625,662.03 635.772,661.947C635.916,661.864 636.094,661.823 636.307,661.823C636.927,661.823 637.566,661.847 638.224,661.897C638.883,661.951 639.503,661.978 640.084,661.978C640.626,661.978 641.281,661.957 642.048,661.916C642.811,661.874 643.464,661.854 644.006,661.854C644.238,661.854 644.428,661.891 644.576,661.965C644.719,662.036 644.791,662.154 644.791,662.319C644.791,662.547 644.645,662.713 644.355,662.816C644.064,662.92 643.754,663.055 643.425,663.22C643.134,663.345 642.883,663.597 642.67,663.978C642.457,664.363 642.35,664.908 642.35,665.612L642.35,673.75C642.35,675.158 642.563,676.318 642.989,677.229C643.415,678.14 643.983,678.813 644.692,679.248C645.397,679.683 646.185,679.901 647.057,679.901C648.819,679.901 650.133,679.341 650.996,678.223C651.856,677.105 652.286,675.397 652.286,673.098C652.286,672.56 652.292,671.953 652.304,671.278C652.312,670.607 652.315,669.913 652.315,669.197C652.315,668.484 652.306,667.807 652.286,667.165C652.267,666.233 652.205,665.509 652.1,664.991C651.992,664.473 651.831,664.069 651.618,663.779C651.405,663.489 651.115,663.251 650.747,663.065C650.533,662.941 650.287,662.831 650.009,662.736C649.726,662.645 649.584,662.506 649.584,662.319C649.584,662.154 649.662,662.04 649.817,661.978C649.972,661.916 650.185,661.885 650.456,661.885C651.153,661.885 651.682,661.895 652.042,661.916C652.399,661.936 652.8,661.947 653.245,661.947C653.613,661.947 653.919,661.936 654.163,661.916C654.403,661.895 654.655,661.874 654.919,661.854C655.178,661.833 655.492,661.823 655.86,661.823C656.092,661.823 656.276,661.854 656.412,661.916C656.548,661.978 656.615,662.102 656.615,662.288C656.615,662.558 656.354,662.775 655.831,662.941C655.192,663.127 654.742,663.442 654.483,663.885C654.219,664.332 654.068,664.929 654.03,665.674C653.971,667.248 653.933,668.691 653.913,670.004C653.894,671.321 653.884,672.663 653.884,674.03C653.865,675.707 653.512,677.192 652.827,678.484C652.137,679.78 651.202,680.791 650.02,681.516C648.839,682.241 647.522,682.603 646.069,682.603ZM657.952,682.261C657.797,682.261 657.661,682.224 657.545,682.149C657.429,682.079 657.371,681.971 657.371,681.826C657.371,681.495 657.574,681.278 657.981,681.174C658.717,681.008 659.224,680.795 659.503,680.534C659.786,680.277 659.928,679.807 659.928,679.124L659.928,665.208C659.928,664.504 659.811,663.991 659.579,663.668C659.346,663.349 658.882,663.106 658.184,662.941C657.932,662.879 657.758,662.79 657.661,662.674C657.564,662.562 657.516,662.433 657.516,662.288C657.516,662.164 657.574,662.057 657.69,661.965C657.807,661.87 657.962,661.823 658.155,661.823C658.601,661.823 659.05,661.833 659.503,661.854C659.96,661.874 660.406,661.899 660.84,661.928C661.278,661.961 661.69,661.978 662.077,661.978C662.542,661.978 662.953,661.951 663.309,661.897C663.67,661.847 664.067,661.796 664.501,661.742C664.938,661.692 665.467,661.667 666.087,661.667C668.45,661.667 670.323,662.199 671.706,663.264C673.093,664.332 673.786,665.798 673.786,667.662C673.786,668.967 673.529,670.168 673.013,671.265C672.502,672.363 671.727,673.247 670.689,673.918C669.655,674.593 668.343,674.931 666.755,674.931C666.252,674.931 665.868,674.848 665.605,674.682C665.345,674.516 665.215,674.32 665.215,674.092C665.215,673.947 665.277,673.827 665.401,673.732C665.529,673.641 665.641,673.595 665.738,673.595C665.951,673.595 666.135,673.62 666.29,673.67C666.445,673.723 666.658,673.75 666.929,673.75C667.743,673.75 668.357,673.264 668.771,672.29C669.19,671.317 669.399,670.033 669.399,668.439C669.399,666.534 669.108,665.156 668.527,664.307C667.946,663.458 667.133,663.034 666.087,663.034C665.545,663.034 665.132,663.162 664.849,663.419C664.57,663.68 664.431,664.08 664.431,664.618L664.402,679.062C664.402,679.725 664.566,680.195 664.896,680.472C665.225,680.754 665.796,680.988 666.61,681.174C666.823,681.216 666.982,681.282 667.086,681.373C667.195,681.468 667.249,681.609 667.249,681.795C667.249,681.94 667.201,682.054 667.104,682.137C667.007,682.22 666.871,682.261 666.697,682.261C666.271,682.261 665.781,682.247 665.227,682.218C664.677,682.185 664.131,682.158 663.588,682.137C663.046,682.116 662.581,682.106 662.194,682.106C661.787,682.106 661.341,682.116 660.857,682.137C660.373,682.158 659.873,682.185 659.358,682.218C658.847,682.247 658.378,682.261 657.952,682.261Z" style="fill:rgb(226,112,18);fill-rule:nonzero;stroke:rgb(226,112,18);stroke-width:0.63px;"/>
            <path d="M582.865,62.262C584.741,62.262 599.76,69.771 608.207,72.588C605.39,73.528 598.821,70.711 591.311,67.895C593.188,67.895 596.944,68.834 600.697,70.709C598.821,68.832 584.741,64.139 582.865,62.262M443.015,33.167C445.831,32.227 478.68,36.92 493.699,37.86C494.639,36.92 491.822,36.92 488.066,35.983C492.759,35.043 502.145,37.86 508.715,38.797C489.006,39.736 467.417,34.104 448.648,35.983C442.078,35.983 446.771,34.106 443.015,33.167M415.796,33.167C432.692,33.167 445.831,33.167 421.426,35.043C418.61,34.104 414.856,34.104 415.796,33.167M681.417,111.069C683.293,111.069 690.803,119.516 694.556,122.332C693.616,123.272 686.11,115.763 682.356,112.946C683.296,113.886 682.356,112.946 681.417,111.069M662.644,98.867C655.135,92.297 652.321,92.297 651.381,88.544C657.951,92.297 662.644,96.053 662.644,98.867M541.567,39.736C542.506,38.797 544.383,40.676 549.076,41.613C543.443,40.673 544.383,41.613 546.26,43.49C539.69,42.55 537.813,41.613 539.69,39.736C543.443,41.613 544.383,40.676 541.567,39.736M275.007,50.999C275.007,50.06 278.76,48.183 281.576,47.246C278.76,49.123 279.7,50.062 284.393,48.183C284.393,49.123 278.76,50.999 275.007,52.876C276.883,51.936 278.76,49.123 275.007,50.999M560.339,30.35C557.523,31.29 547.199,25.657 536.874,23.78C531.241,21.904 559.399,28.474 560.339,30.35M6.57,494.014C12.203,517.479 8.446,516.54 6.57,494.014M7.509,353.225C8.449,349.471 9.386,339.145 10.323,340.085C7.507,362.611 2.814,372.937 1.877,389.829C4.693,374.813 0.937,398.276 -0,403.909C0.94,411.418 0.94,399.216 2.816,401.095C4.693,403.911 -0.937,443.333 0.94,421.744C-0.937,441.453 0.94,463.042 4.693,468.672C-0,498.707 23.465,566.284 28.158,580.363C29.098,581.303 28.158,575.67 30.035,579.426C31.912,591.629 40.358,600.075 43.175,613.215C45.991,616.968 57.254,637.617 59.131,642.313C62.884,649.822 64.763,648.883 68.517,656.39C79.78,677.978 97.612,698.627 114.508,718.337C168.945,782.16 252.481,834.721 345.403,853.496C438.324,873.205 535.937,859.129 611.96,822.521C616.653,819.705 615.714,818.768 621.346,816.888C647.628,808.442 679.54,781.223 697.372,770.897C705.819,761.511 728.347,745.555 731.164,736.172C747.12,723.032 763.075,701.444 771.522,687.364C776.215,679.855 779.968,679.855 781.845,675.162C780.905,675.162 796.861,655.453 801.557,644.19C799.68,644.19 796.864,649.822 796.864,644.19C830.652,579.426 849.425,492.137 839.099,432.067C840.976,506.217 822.203,588.813 786.538,641.373C770.582,675.162 737.731,711.767 707.698,738.048C703.005,742.742 698.312,748.372 692.679,752.128C674.847,767.144 655.135,779.346 634.488,790.609C585.681,817.828 531.244,841.293 467.417,842.23C577.232,832.844 675.784,777.467 730.224,709.89C688.926,750.248 671.093,766.204 625.102,789.67C621.349,796.239 590.374,809.379 569.725,815.012C581.928,809.379 607.27,799.995 615.716,792.486C547.199,825.337 471.173,844.11 399.84,833.784C427.059,833.784 465.541,834.724 502.145,828.154C507.778,826.277 510.592,824.4 517.164,823.461C588.497,807.505 657.014,772.777 705.822,723.969C677.663,749.311 635.428,779.346 608.207,788.733C633.549,774.653 679.54,747.435 694.556,726.786C664.521,756.821 608.207,786.856 572.541,799.995C566.909,800.935 576.295,796.242 566.909,799.995C555.646,802.812 560.339,802.812 557.523,804.689C514.348,816.891 464.601,827.214 423.306,823.461C415.796,822.521 412.982,820.644 406.41,820.644C398.9,819.705 392.331,819.705 383.884,819.705C351.033,815.951 315.368,802.809 289.086,791.549C275.007,784.979 260.927,780.286 246.848,771.837C235.585,765.267 226.199,757.758 216.816,750.251C181.15,723.969 151.115,697.69 122.954,660.146C72.27,589.752 45.991,501.523 49.744,414.234C53.498,326.945 88.226,241.533 143.603,178.647C140.787,181.463 147.357,172.077 152.989,166.447C152.989,168.323 152.05,171.14 158.622,164.57C164.255,158 156.745,162.693 159.559,158.937C217.753,95.114 319.121,43.49 423.306,41.613C427.059,38.797 433.629,35.043 441.138,36.92C441.138,37.86 436.445,37.86 436.445,37.86C446.768,36.92 456.154,36.92 460.847,38.797C461.787,37.857 457.094,36.92 460.847,36.92C467.417,38.797 469.294,36.92 473.05,38.797C470.234,38.797 467.417,38.797 465.541,39.736C489.006,39.736 504.022,45.369 527.487,47.246C515.285,44.429 512.471,44.429 503.085,41.613C513.408,43.49 518.101,45.366 522.794,44.429C520.918,44.429 521.855,41.613 523.734,42.553C542.506,47.246 544.383,49.123 564.092,55.692C565.969,53.816 555.646,52.876 552.83,50.06C571.602,56.629 588.495,61.322 599.76,68.832C596.007,66.015 584.744,62.262 576.295,58.509C575.355,59.448 579.111,60.385 580.048,62.262C570.662,57.569 557.523,52.876 544.383,50.999C555.646,53.816 563.155,57.569 567.848,59.446C557.525,57.569 544.383,50.999 529.364,48.183C553.767,55.692 599.758,72.585 627.916,87.604C617.593,81.034 605.39,76.341 598.821,72.588C604.453,73.528 611.023,77.281 611.023,75.402C617.593,78.218 626.039,84.788 630.732,85.727C622.286,80.095 605.39,71.648 599.76,68.832C670.154,100.744 733.04,154.244 773.399,222.761C777.152,229.331 782.785,244.35 787.478,246.226C786.538,241.533 782.785,238.717 779.031,231.21C780.908,231.21 780.908,228.394 779.031,225.577C775.278,220.884 779.031,229.331 775.275,224.638C758.38,193.663 737.731,166.444 705.822,136.412C723.654,153.307 710.515,141.105 706.759,135.472C731.161,157.061 759.319,193.665 771.522,212.438C769.645,209.621 768.706,207.745 769.645,207.745C792.171,246.226 806.25,280.954 820.329,330.699C821.269,331.639 820.329,326.945 822.206,329.762C831.592,369.183 834.409,402.035 833.469,432.067C840.978,381.383 824.083,302.54 794.048,240.593C790.294,233.084 790.294,238.717 786.538,230.27C786.538,227.454 783.722,221.824 781.845,218.068C744.3,156.121 698.309,112.006 643.872,77.281C647.625,79.158 655.135,84.79 655.137,83.851C553.769,17.211 436.445,7.825 339.77,28.474C333.2,31.29 330.384,34.106 322.874,37.86C336.954,33.167 345.4,32.227 358.542,29.411C361.359,26.594 346.34,30.35 352.909,27.534C353.849,28.474 366.049,25.657 368.865,26.597C368.865,27.536 365.112,28.474 364.172,29.411C395.147,22.841 427.059,21.901 454.278,23.78C438.322,24.72 409.226,21.904 399.84,26.597C409.226,25.657 422.366,24.72 430.812,25.657C419.549,25.657 398.9,26.597 389.514,27.534C388.575,26.594 404.531,24.717 394.207,24.72C389.514,25.66 382.005,25.66 379.191,28.474C298.472,35.983 219.629,78.218 164.252,127.965C152.989,137.351 139.85,147.674 131.403,157.998C110.754,181.463 97.615,204.928 82.596,225.577C91.982,205.868 112.631,175.833 137.033,150.491C161.436,125.149 187.718,103.56 201.797,92.297C201.797,96.051 224.322,78.218 232.772,72.588C227.139,77.281 236.525,70.711 238.402,71.648C268.437,53.816 292.839,47.246 320.061,36.92C313.491,38.797 307.858,40.673 306.918,39.736C313.488,37.86 317.242,35.983 316.305,35.043C290.023,42.553 248.725,60.385 215.876,80.095C275.007,39.736 350.096,15.331 424.243,14.394C498.392,12.518 570.662,31.29 627.916,61.325C666.398,78.221 703.003,109.193 732.101,139.228C740.547,146.737 733.977,137.351 746.18,150.491C742.426,148.614 739.61,146.737 744.303,152.367C751.813,160.814 742.426,145.798 754.626,160.814C753.687,160.814 749.933,156.121 749.933,157.998C782.785,187.093 808.127,239.654 823.143,274.385C819.39,260.305 810.004,240.596 802.494,226.517C825.02,267.815 832.529,292.217 841.915,328.822C845.669,331.639 840.039,315.683 843.792,323.192C844.732,328.825 845.669,346.657 849.425,349.471C846.608,331.639 841.915,310.05 838.162,306.296C840.978,308.173 833.469,284.708 828.776,279.078C826.899,264.061 813.76,237.78 802.494,218.068C762.136,139.225 689.863,74.465 609.146,38.797C609.146,36.92 604.453,35.043 602.574,33.167C522.794,-0.622 427.056,-10.008 335.077,11.578C242.155,34.104 154.869,87.604 92.919,164.57C95.735,155.184 119.201,137.351 120.141,129.842C92.922,158.937 63.826,197.421 44.114,238.717C23.465,280.015 12.203,322.252 7.509,353.225" style="fill:rgb(5,57,98);fill-rule:nonzero;"/>
        </g>
    </g>
</svg>
